<svg id="svg" version="1.1" xmlns="http://www.w3.org/2000/svg" xmlns:xlink="http://www.w3.org/1999/xlink" width="400" height="194.2857142857143" viewBox="0, 0, 400,194.2857142857143"><g id="svgg"><path id="path0" d="M6.608 2.839 C 6.608 6.724,6.731 6.600,2.867 6.605 L 0.000 6.608 0.000 97.085 L 0.000 187.561 2.803 187.561 L 5.607 187.561 6.205 188.159 L 6.803 188.757 6.803 191.560 L 6.803 194.363 200.000 194.363 L 393.197 194.363 393.197 191.410 C 393.197 188.470,393.200 188.454,393.720 187.912 L 394.242 187.366 397.121 187.366 L 400.000 187.366 400.000 97.376 L 400.000 7.386 397.210 7.386 L 394.420 7.386 393.517 6.508 L 392.614 5.631 392.614 2.815 L 392.614 0.000 199.611 0.000 L 6.608 0.000 6.608 2.839 M75.856 33.058 C 81.488 34.947,83.042 37.494,84.555 47.307 C 84.985 50.102,85.158 141.785,84.749 150.649 C 84.426 157.657,82.554 160.313,76.871 161.833 C 74.592 162.442,61.824 162.377,59.378 161.743 C 55.461 160.729,52.533 158.621,51.802 156.289 C 51.722 156.033,51.317 155.508,50.902 155.122 C 50.023 154.307,50.053 154.431,49.178 147.911 L 48.591 143.537 48.574 102.138 C 48.565 79.368,48.493 58.639,48.415 56.074 L 48.273 51.409 49.019 49.531 C 49.429 48.498,50.157 46.944,50.636 46.078 C 51.114 45.212,51.506 44.408,51.506 44.290 C 51.506 43.539,52.617 39.745,53.121 38.776 C 54.549 36.029,58.054 33.638,61.905 32.784 C 63.410 32.451,74.706 32.673,75.856 33.058 M179.495 33.272 C 183.007 34.002,185.734 35.060,187.518 36.383 L 188.544 37.145 191.502 36.667 C 193.129 36.404,195.685 36.041,197.182 35.859 C 198.678 35.678,200.209 35.412,200.583 35.268 C 202.549 34.511,205.861 33.701,209.329 33.128 C 211.591 32.754,232.357 32.831,237.512 33.232 C 238.848 33.336,241.254 33.521,242.857 33.643 C 246.997 33.958,249.405 35.483,251.020 38.810 C 251.813 40.443,253.819 41.513,258.601 42.856 C 262.676 44.001,264.485 46.094,265.979 51.395 C 266.620 53.670,267.301 55.557,268.185 57.508 L 268.570 58.359 269.269 57.411 C 271.000 55.061,272.086 52.314,272.602 48.980 C 273.915 40.488,275.755 36.647,279.342 34.913 C 281.731 33.758,289.500 32.856,297.570 32.796 L 303.693 32.750 305.047 33.431 C 308.014 34.921,309.736 37.619,310.321 41.691 C 311.038 46.688,311.207 49.765,311.142 56.657 L 311.079 63.460 311.747 64.529 C 313.283 66.985,314.119 67.876,314.764 67.745 C 322.255 66.228,324.517 66.011,331.390 66.151 C 341.226 66.352,343.594 67.532,345.097 72.983 C 346.044 76.418,348.117 80.329,349.239 80.798 C 351.116 81.582,353.110 83.246,354.002 84.771 L 354.497 85.617 354.430 109.524 C 354.385 125.501,354.291 134.011,354.146 135.180 C 353.127 143.421,353.005 143.716,349.803 145.621 C 348.600 146.337,348.415 146.538,347.628 147.983 C 346.439 150.165,344.487 154.474,344.313 155.296 C 343.692 158.238,341.280 160.772,338.231 161.685 C 333.833 163.003,320.095 162.502,315.221 160.846 C 314.369 160.557,314.166 160.562,312.111 160.929 C 304.566 162.274,292.383 162.557,282.896 161.607 C 277.396 161.057,275.083 159.197,273.557 154.098 C 272.536 150.686,269.168 143.436,268.610 143.449 C 268.557 143.451,267.988 144.607,267.347 146.018 C 266.222 148.494,264.121 152.244,263.110 153.582 C 262.841 153.937,262.410 154.752,262.151 155.394 C 259.538 161.864,257.910 162.195,228.766 162.196 C 207.720 162.196,207.608 162.192,201.652 161.032 C 200.369 160.782,198.314 160.519,197.085 160.448 C 195.855 160.376,193.453 160.157,191.747 159.960 L 188.644 159.602 187.537 160.068 C 181.303 162.692,166.113 163.109,161.370 160.786 C 158.476 159.369,157.525 157.621,155.978 150.879 C 154.910 146.222,154.839 145.922,154.469 144.509 L 154.265 143.732 154.027 144.898 C 153.896 145.539,153.383 148.076,152.886 150.534 C 151.084 159.466,149.769 161.156,143.749 162.272 C 141.028 162.777,134.226 160.856,132.090 158.980 L 131.410 158.384 130.477 158.701 C 126.954 159.899,117.480 161.533,110.787 162.096 C 107.307 162.389,97.259 162.065,95.530 161.605 C 89.152 159.905,87.311 157.595,86.866 150.729 C 86.365 143.008,86.380 51.736,86.882 48.650 C 88.379 39.458,90.474 35.936,95.652 33.906 C 99.196 32.518,129.450 32.634,132.238 34.047 C 136.106 36.008,138.599 41.872,139.537 51.215 C 139.858 54.416,140.122 57.287,140.341 59.961 C 140.583 62.912,142.378 70.165,142.866 70.165 C 142.934 70.165,143.268 69.259,143.608 68.152 C 144.919 63.882,145.124 62.715,145.562 57.046 C 146.347 46.883,146.540 45.149,147.350 40.914 C 148.126 36.860,150.015 34.277,153.086 33.071 C 154.518 32.508,176.631 32.677,179.495 33.272 M233.873 62.434 C 233.611 62.716,233.311 63.548,233.049 64.723 C 232.822 65.739,232.554 66.930,232.454 67.371 C 232.353 67.812,232.051 69.428,231.782 70.962 L 231.293 73.751 231.294 98.051 C 231.294 111.441,231.384 124.446,231.494 127.016 L 231.693 131.681 232.707 132.716 C 234.303 134.344,234.258 134.341,235.667 132.898 L 236.887 131.647 237.054 129.332 C 237.145 128.058,237.221 114.815,237.221 99.903 L 237.221 72.789 236.586 69.679 C 235.394 63.837,235.150 62.897,234.708 62.434 L 234.286 61.991 233.873 62.434 M313.172 93.918 C 312.640 94.590,311.955 95.523,311.650 95.990 L 311.094 96.838 311.131 110.858 C 311.151 118.570,311.103 126.392,311.026 128.242 L 310.884 131.605 311.792 132.809 C 312.291 133.472,313.056 134.359,313.492 134.782 L 314.286 135.550 315.081 134.782 C 315.519 134.359,316.264 133.475,316.738 132.817 L 317.598 131.620 317.363 123.099 C 317.185 116.699,317.179 112.424,317.336 105.928 C 317.577 96.005,317.708 96.925,315.674 94.280 C 314.271 92.455,314.322 92.462,313.172 93.918 " stroke="none" fill="#e4bb1c" fill-rule="evenodd"></path><path id="path1" d="M61.932 45.918 C 61.450 46.693,60.644 48.201,60.139 49.269 L 59.222 51.210 59.263 97.374 C 59.308 148.378,59.190 143.084,60.451 151.118 C 60.955 154.324,60.908 154.195,61.842 154.935 L 62.633 155.561 68.473 155.510 L 74.314 155.460 74.953 154.972 C 75.304 154.704,75.637 154.339,75.691 154.162 C 75.858 153.616,76.373 150.506,76.874 147.016 L 77.352 143.693 77.359 97.441 L 77.366 51.189 76.864 49.841 C 76.588 49.100,75.918 47.597,75.374 46.501 L 74.385 44.509 68.596 44.509 L 62.807 44.509 61.932 45.918 M153.502 46.337 C 152.133 49.850,151.798 51.338,151.794 53.927 C 151.787 58.071,151.420 65.296,151.014 69.291 C 149.998 79.289,148.573 83.062,144.312 87.049 C 142.748 88.512,143.011 88.541,141.254 86.712 C 135.931 81.174,134.703 76.166,133.712 55.977 C 133.470 51.041,133.446 50.930,131.972 48.007 L 131.432 46.937 127.572 46.397 C 125.449 46.100,122.838 45.723,121.769 45.560 C 120.243 45.327,118.508 45.279,113.703 45.337 L 107.580 45.410 103.790 46.410 C 101.706 46.960,99.347 47.613,98.550 47.861 L 97.099 48.311 96.256 49.860 L 95.413 51.409 95.541 53.353 C 95.611 54.422,95.727 75.413,95.798 100.000 L 95.928 144.704 96.472 147.522 C 97.096 150.751,97.122 150.797,99.377 152.795 C 101.246 154.450,100.910 154.333,105.442 154.904 L 108.551 155.296 109.718 154.905 C 111.316 154.368,111.234 154.460,112.049 152.284 C 114.162 146.636,114.938 143.577,114.784 141.497 C 112.892 115.955,114.430 99.944,119.345 93.992 L 120.032 93.161 120.641 93.956 C 123.512 97.706,125.078 103.087,126.727 114.869 C 128.142 124.980,129.503 129.957,131.737 133.198 C 133.131 135.220,134.178 137.418,135.191 140.450 C 135.680 141.914,136.389 143.726,136.766 144.475 C 137.736 146.401,138.691 148.961,139.532 151.895 L 140.257 154.422 141.565 155.179 L 142.872 155.935 143.593 155.354 C 144.584 154.555,144.721 154.193,145.082 151.409 C 145.256 150.073,145.609 147.493,145.867 145.675 C 146.124 143.858,146.477 140.841,146.650 138.970 C 147.020 134.972,147.766 129.562,148.323 126.822 C 149.530 120.891,152.247 113.320,154.032 110.913 C 154.567 110.192,157.786 111.706,159.368 113.423 C 162.028 116.308,162.847 121.422,163.446 138.873 C 163.571 142.492,163.734 144.560,164.023 146.161 C 164.245 147.391,164.613 149.708,164.839 151.312 C 165.361 155.000,164.951 154.689,169.595 154.906 C 171.726 155.006,174.271 155.142,175.250 155.208 C 178.909 155.458,179.021 155.304,181.152 147.036 L 182.103 143.343 182.137 97.267 L 182.170 51.190 181.422 50.134 C 180.255 48.485,178.733 46.616,177.950 45.870 L 177.237 45.190 169.425 45.181 C 163.385 45.174,160.952 45.097,158.698 44.841 C 157.094 44.659,155.430 44.510,154.998 44.510 L 154.215 44.509 153.502 46.337 M300.000 44.720 C 298.931 44.811,296.553 44.964,294.716 45.061 L 291.376 45.237 290.052 45.959 C 288.405 46.857,284.830 49.237,283.307 50.449 L 282.163 51.359 282.289 52.745 C 282.359 53.507,282.544 55.180,282.702 56.463 C 283.489 62.877,283.479 62.332,283.479 99.028 C 283.479 125.736,283.417 135.648,283.229 138.818 L 282.978 143.038 283.876 145.232 C 284.698 147.238,287.083 152.167,287.971 153.692 C 288.754 155.036,291.278 155.276,297.862 154.630 C 301.886 154.235,302.552 154.008,303.858 152.589 C 306.568 149.644,309.272 147.347,312.695 145.084 L 314.117 144.143 314.759 144.489 C 316.953 145.670,320.458 150.828,321.009 153.686 C 321.142 154.378,321.995 154.946,324.438 155.970 L 325.747 156.518 327.937 156.091 C 336.461 154.428,336.517 154.392,338.398 149.410 C 339.116 147.509,340.016 145.234,340.398 144.356 L 341.094 142.760 341.393 137.609 C 341.633 133.486,341.693 127.802,341.692 109.103 L 341.691 85.748 341.039 84.030 C 340.299 82.083,339.566 79.375,338.969 76.385 C 338.600 74.536,338.494 74.277,337.842 73.632 L 337.123 72.919 334.402 72.693 C 332.906 72.568,330.326 72.355,328.669 72.220 L 325.656 71.972 323.518 72.614 C 322.342 72.967,320.768 73.502,320.019 73.803 L 318.659 74.351 318.517 75.611 C 318.349 77.104,317.873 80.598,317.481 83.211 C 317.094 85.795,317.083 85.736,318.072 86.361 C 320.470 87.876,321.949 90.541,322.946 95.140 C 323.410 97.277,323.405 131.703,322.941 133.530 C 321.849 137.830,320.265 140.044,317.298 141.414 C 314.522 142.696,313.955 142.685,311.045 141.289 C 308.158 139.906,306.482 137.588,305.552 133.695 C 304.945 131.154,304.926 97.798,305.530 95.090 C 306.584 90.364,307.935 87.982,310.464 86.383 C 311.570 85.685,311.584 86.256,310.307 79.786 L 309.243 74.399 308.474 73.565 C 305.990 70.870,305.280 67.468,305.215 57.942 L 305.166 50.868 304.559 49.001 C 304.225 47.974,303.718 46.565,303.433 45.870 C 302.834 44.414,302.992 44.467,300.000 44.720 M210.078 46.185 C 207.512 48.147,204.392 51.405,204.575 51.932 C 204.661 52.179,204.763 72.760,204.802 97.668 L 204.873 142.954 205.468 144.898 C 206.034 146.747,207.649 151.134,208.554 153.282 C 208.977 154.288,209.201 154.454,210.982 155.089 C 211.195 155.165,219.082 155.165,228.507 155.090 C 247.978 154.933,246.779 155.040,248.008 153.360 C 249.482 151.345,252.457 149.443,255.654 148.471 C 257.139 148.019,257.199 147.976,258.083 146.745 C 259.895 144.222,260.641 142.861,260.641 142.081 C 260.641 141.675,260.838 139.387,261.079 136.998 C 261.514 132.670,261.516 132.518,261.516 98.056 L 261.516 63.460 261.094 61.419 C 260.542 58.751,260.519 58.594,260.065 54.649 L 259.678 51.281 258.503 50.063 L 257.327 48.845 255.050 48.602 C 252.341 48.312,249.308 47.803,247.036 47.256 C 246.127 47.037,244.422 46.767,243.246 46.655 C 242.070 46.543,239.796 46.270,238.192 46.049 C 235.725 45.708,233.695 45.621,224.976 45.483 C 219.310 45.393,213.962 45.268,213.091 45.206 L 211.507 45.093 210.078 46.185 M235.994 55.128 C 240.797 56.858,242.354 59.534,242.857 66.925 C 243.383 74.647,243.284 130.976,242.740 132.932 C 241.426 137.665,236.927 140.987,233.142 140.018 C 229.186 139.006,227.079 136.967,225.824 132.938 L 225.371 131.487 225.368 100.972 C 225.364 63.978,225.393 63.301,227.164 59.682 C 228.172 57.621,230.303 55.887,232.945 54.978 C 234.243 54.531,234.352 54.536,235.994 55.128 " stroke="none" fill="#090804" fill-rule="evenodd"></path><path id="path2" d="M61.728 39.212 C 60.026 40.489,57.887 44.292,56.380 48.720 L 55.582 51.065 55.634 98.273 L 55.686 145.481 56.232 149.854 L 56.778 154.227 57.495 154.971 C 58.527 156.042,59.802 156.940,61.442 157.751 L 62.877 158.461 68.640 158.359 L 74.403 158.257 75.393 157.718 C 78.021 156.288,79.359 154.761,79.560 152.964 C 80.491 144.648,80.435 147.967,80.487 97.668 L 80.535 50.826 79.732 48.299 C 78.293 43.774,76.627 40.441,75.214 39.258 L 74.290 38.484 68.486 38.490 L 62.682 38.496 61.728 39.212 M153.606 39.116 C 152.526 40.252,151.484 42.890,150.324 47.425 C 149.623 50.164,149.574 50.620,148.986 59.767 C 148.403 68.852,146.872 75.030,144.198 79.088 C 142.825 81.172,142.960 81.130,141.990 79.787 C 138.788 75.356,137.152 68.573,136.339 56.365 C 135.819 48.553,133.101 41.480,130.490 41.142 C 129.969 41.075,127.925 40.698,125.948 40.305 L 122.352 39.590 115.063 39.510 C 107.254 39.424,106.355 39.486,100.097 40.539 C 96.596 41.129,95.767 41.953,93.302 47.288 C 91.767 50.610,91.905 45.642,91.926 96.890 C 91.947 146.072,91.890 142.958,92.913 151.118 L 93.302 154.227 94.222 155.082 C 96.129 156.856,96.835 157.179,99.320 157.415 C 109.386 158.373,109.084 158.389,114.383 156.619 C 118.879 155.117,119.788 154.569,119.990 153.237 C 120.611 149.159,125.378 146.161,131.241 146.161 C 131.666 146.161,134.064 150.564,135.195 153.421 C 135.814 154.984,138.475 156.960,141.536 158.130 L 142.847 158.631 143.859 158.081 C 146.071 156.880,147.771 154.779,148.000 152.964 C 148.074 152.376,148.307 150.889,148.517 149.660 C 148.728 148.431,149.162 145.894,149.482 144.023 C 150.739 136.676,151.972 131.684,153.551 127.551 C 154.298 125.597,154.259 125.600,155.246 127.454 C 156.961 130.674,158.269 135.095,159.285 141.108 C 159.456 142.123,159.977 144.922,160.443 147.328 C 160.908 149.733,161.398 152.312,161.531 153.059 C 161.801 154.583,162.947 156.042,164.798 157.222 L 165.695 157.793 171.440 158.014 L 177.185 158.235 178.728 157.664 C 180.838 156.884,182.577 156.050,183.967 155.150 L 185.134 154.394 185.684 151.687 C 185.987 150.198,186.445 147.799,186.702 146.356 L 187.169 143.732 187.185 103.790 C 187.194 81.822,187.268 61.050,187.350 57.629 L 187.498 51.409 186.668 49.738 C 184.570 45.518,180.599 40.782,178.157 39.588 L 177.036 39.041 171.399 39.263 C 167.307 39.423,165.194 39.426,163.688 39.273 C 161.224 39.023,154.960 38.484,154.517 38.484 C 154.346 38.484,153.936 38.768,153.606 39.116 M299.028 38.697 C 297.852 38.784,295.662 38.946,294.160 39.057 C 289.958 39.367,287.045 40.448,282.049 43.550 L 280.035 44.801 279.189 46.550 C 277.872 49.275,277.314 50.896,277.151 52.478 C 276.681 57.033,276.039 60.267,275.222 62.196 C 274.406 64.122,274.206 73.061,274.289 103.790 L 274.365 131.487 274.888 133.431 C 275.379 135.259,276.190 140.570,276.190 141.962 C 276.190 142.310,276.407 143.230,276.671 144.007 C 277.264 145.751,277.964 148.577,278.624 151.895 C 279.183 154.708,279.497 155.243,280.804 155.620 C 284.041 156.552,285.626 156.954,288.261 157.514 L 291.294 158.158 297.008 157.796 C 300.150 157.597,303.246 157.303,303.887 157.143 C 308.008 156.113,310.543 154.995,312.572 153.312 C 314.488 151.722,314.226 151.731,315.209 153.226 C 317.319 156.435,323.571 159.253,327.547 158.787 C 330.586 158.431,336.460 157.433,337.109 157.162 C 338.247 156.686,339.793 154.722,340.519 152.829 C 341.506 150.255,343.179 146.506,344.176 144.631 C 345.012 143.059,345.077 142.822,345.316 140.529 C 345.455 139.190,345.720 137.002,345.904 135.666 C 346.202 133.500,346.245 130.654,346.301 109.486 L 346.365 85.736 345.645 84.611 C 344.530 82.868,343.180 79.840,342.282 77.065 C 340.534 71.670,338.987 70.325,334.111 69.962 C 325.580 69.328,321.191 69.930,314.996 72.587 L 314.248 72.907 313.171 72.168 C 310.987 70.667,309.142 68.044,308.070 64.917 C 307.484 63.207,307.438 62.323,307.624 56.463 C 307.812 50.553,307.465 48.197,305.695 43.343 C 304.730 40.697,304.443 40.117,303.684 39.277 C 302.874 38.381,303.031 38.400,299.028 38.697 M210.388 39.564 C 207.519 40.733,202.787 44.502,200.462 47.471 C 200.235 47.760,199.492 48.235,198.810 48.525 C 198.128 48.815,196.532 49.576,195.263 50.217 L 192.956 51.381 193.079 52.658 C 193.235 54.290,193.859 58.732,194.391 62.002 C 194.625 63.437,194.520 141.701,194.283 142.379 C 194.135 142.803,195.718 145.187,198.577 148.848 C 199.453 149.968,200.072 150.969,200.202 151.472 C 200.944 154.353,200.940 154.346,202.527 155.137 C 204.440 156.091,206.811 156.954,209.329 157.615 L 211.370 158.150 228.474 158.072 C 247.277 157.986,246.189 158.054,249.998 156.729 C 255.569 154.789,257.350 153.417,260.623 148.539 C 263.510 144.238,263.814 143.513,264.528 139.261 C 264.868 137.230,265.325 134.781,265.542 133.819 C 266.194 130.926,266.649 79.993,266.087 72.789 C 265.986 71.506,265.846 68.751,265.774 66.667 C 265.702 64.582,265.569 62.782,265.478 62.667 C 264.888 61.915,262.782 54.746,262.459 52.391 C 262.226 50.694,260.383 48.343,257.974 46.674 C 257.624 46.431,256.296 45.985,254.962 45.661 C 251.167 44.742,247.845 43.493,246.304 42.408 C 245.966 42.170,244.724 41.843,242.898 41.511 C 241.316 41.224,238.692 40.696,237.067 40.338 L 234.111 39.688 225.656 39.469 C 211.569 39.104,211.519 39.104,210.388 39.564 M75.374 46.501 C 75.918 47.597,76.588 49.100,76.864 49.841 L 77.366 51.189 77.359 97.441 L 77.352 143.693 76.874 147.016 C 76.373 150.506,75.858 153.616,75.691 154.162 C 75.637 154.339,75.304 154.704,74.953 154.972 L 74.314 155.460 68.473 155.510 L 62.633 155.561 61.842 154.935 C 60.908 154.195,60.955 154.324,60.451 151.118 C 59.190 143.084,59.308 148.378,59.263 97.374 L 59.222 51.210 60.139 49.269 C 60.644 48.201,61.450 46.693,61.932 45.918 L 62.807 44.509 68.596 44.509 L 74.385 44.509 75.374 46.501 M158.698 44.841 C 160.952 45.097,163.385 45.174,169.425 45.181 L 177.237 45.190 177.950 45.870 C 178.733 46.616,180.255 48.485,181.422 50.134 L 182.170 51.190 182.137 97.267 L 182.103 143.343 181.152 147.036 C 179.021 155.304,178.909 155.458,175.250 155.208 C 174.271 155.142,171.726 155.006,169.595 154.906 C 164.951 154.689,165.361 155.000,164.839 151.312 C 164.613 149.708,164.245 147.391,164.023 146.161 C 163.734 144.560,163.571 142.492,163.446 138.873 C 162.847 121.422,162.028 116.308,159.368 113.423 C 157.786 111.706,154.567 110.192,154.032 110.913 C 152.247 113.320,149.530 120.891,148.323 126.822 C 147.766 129.562,147.020 134.972,146.650 138.970 C 146.477 140.841,146.124 143.858,145.867 145.675 C 145.609 147.493,145.256 150.073,145.082 151.409 C 144.721 154.193,144.584 154.555,143.593 155.354 L 142.872 155.935 141.565 155.179 L 140.257 154.422 139.532 151.895 C 138.691 148.961,137.736 146.401,136.766 144.475 C 136.389 143.726,135.680 141.914,135.191 140.450 C 134.178 137.418,133.131 135.220,131.737 133.198 C 129.503 129.957,128.142 124.980,126.727 114.869 C 125.078 103.087,123.512 97.706,120.641 93.956 L 120.032 93.161 119.345 93.992 C 114.430 99.944,112.892 115.955,114.784 141.497 C 114.938 143.577,114.162 146.636,112.049 152.284 C 111.234 154.460,111.316 154.368,109.718 154.905 L 108.551 155.296 105.442 154.904 C 100.910 154.333,101.246 154.450,99.377 152.795 C 97.122 150.797,97.096 150.751,96.472 147.522 L 95.928 144.704 95.798 100.000 C 95.727 75.413,95.611 54.422,95.541 53.353 L 95.413 51.409 96.256 49.860 L 97.099 48.311 98.550 47.861 C 99.347 47.613,101.706 46.960,103.790 46.410 L 107.580 45.410 113.703 45.337 C 118.508 45.279,120.243 45.327,121.769 45.560 C 122.838 45.723,125.449 46.100,127.572 46.397 L 131.432 46.937 131.972 48.007 C 133.446 50.930,133.470 51.041,133.712 55.977 C 134.703 76.166,135.931 81.174,141.254 86.712 C 143.011 88.541,142.748 88.512,144.312 87.049 C 148.573 83.062,149.998 79.289,151.014 69.291 C 151.420 65.296,151.787 58.071,151.794 53.927 C 151.798 51.338,152.133 49.850,153.502 46.337 L 154.215 44.509 154.998 44.510 C 155.430 44.510,157.094 44.659,158.698 44.841 M303.433 45.870 C 303.718 46.565,304.225 47.974,304.559 49.001 L 305.166 50.868 305.215 57.942 C 305.280 67.468,305.990 70.870,308.474 73.565 L 309.243 74.399 310.307 79.786 C 311.584 86.256,311.570 85.685,310.464 86.383 C 307.935 87.982,306.584 90.364,305.530 95.090 C 304.926 97.798,304.945 131.154,305.552 133.695 C 306.482 137.588,308.158 139.906,311.045 141.289 C 313.955 142.685,314.522 142.696,317.298 141.414 C 320.265 140.044,321.849 137.830,322.941 133.530 C 323.405 131.703,323.410 97.277,322.946 95.140 C 321.949 90.541,320.470 87.876,318.072 86.361 C 317.083 85.736,317.094 85.795,317.481 83.211 C 317.873 80.598,318.349 77.104,318.517 75.611 L 318.659 74.351 320.019 73.803 C 320.768 73.502,322.342 72.967,323.518 72.614 L 325.656 71.972 328.669 72.220 C 330.326 72.355,332.906 72.568,334.402 72.693 L 337.123 72.919 337.842 73.632 C 338.494 74.277,338.600 74.536,338.969 76.385 C 339.566 79.375,340.299 82.083,341.039 84.030 L 341.691 85.748 341.692 109.103 C 341.693 127.802,341.633 133.486,341.393 137.609 L 341.094 142.760 340.398 144.356 C 340.016 145.234,339.116 147.509,338.398 149.410 C 336.517 154.392,336.461 154.428,327.937 156.091 L 325.747 156.518 324.438 155.970 C 321.995 154.946,321.142 154.378,321.009 153.686 C 320.458 150.828,316.953 145.670,314.759 144.489 L 314.117 144.143 312.695 145.084 C 309.272 147.347,306.568 149.644,303.858 152.589 C 302.552 154.008,301.886 154.235,297.862 154.630 C 291.278 155.276,288.754 155.036,287.971 153.692 C 287.083 152.167,284.698 147.238,283.876 145.232 L 282.978 143.038 283.229 138.818 C 283.417 135.648,283.479 125.736,283.479 99.028 C 283.479 62.332,283.489 62.877,282.702 56.463 C 282.544 55.180,282.359 53.507,282.289 52.745 L 282.163 51.359 283.307 50.449 C 284.830 49.237,288.405 46.857,290.052 45.959 L 291.376 45.237 294.716 45.061 C 296.553 44.964,298.931 44.811,300.000 44.720 C 302.992 44.467,302.834 44.414,303.433 45.870 M224.976 45.483 C 233.695 45.621,235.725 45.708,238.192 46.049 C 239.796 46.270,242.070 46.543,243.246 46.655 C 244.422 46.767,246.127 47.037,247.036 47.256 C 249.308 47.803,252.341 48.312,255.050 48.602 L 257.327 48.845 258.503 50.063 L 259.678 51.281 260.065 54.649 C 260.519 58.594,260.542 58.751,261.094 61.419 L 261.516 63.460 261.516 98.056 C 261.516 132.518,261.514 132.670,261.079 136.998 C 260.838 139.387,260.641 141.675,260.641 142.081 C 260.641 142.861,259.895 144.222,258.083 146.745 C 257.199 147.976,257.139 148.019,255.654 148.471 C 252.457 149.443,249.482 151.345,248.008 153.360 C 246.779 155.040,247.978 154.933,228.507 155.090 C 219.082 155.165,211.195 155.165,210.982 155.089 C 209.201 154.454,208.977 154.288,208.554 153.282 C 207.649 151.134,206.034 146.747,205.468 144.898 L 204.873 142.954 204.802 97.668 C 204.763 72.760,204.661 52.179,204.575 51.932 C 204.392 51.405,207.512 48.147,210.078 46.185 L 211.507 45.093 213.091 45.206 C 213.962 45.268,219.310 45.393,224.976 45.483 M232.945 54.978 C 230.303 55.887,228.172 57.621,227.164 59.682 C 225.393 63.301,225.364 63.978,225.368 100.972 L 225.371 131.487 225.824 132.938 C 226.476 135.033,227.247 136.443,228.314 137.495 C 233.274 142.385,240.774 140.013,242.740 132.932 C 243.740 129.331,243.253 64.643,242.203 61.591 C 240.603 56.942,236.258 53.838,232.945 54.978 M235.550 58.491 C 236.811 59.347,238.265 60.879,238.988 62.113 C 239.498 62.983,239.871 65.256,240.514 71.405 C 240.835 74.475,240.939 116.447,240.652 127.024 L 240.525 131.697 239.845 132.854 C 238.926 134.416,237.103 136.220,235.575 137.077 L 234.319 137.782 233.146 137.161 C 231.588 136.337,229.412 134.150,228.564 132.556 L 227.891 131.293 227.826 102.624 L 227.762 73.955 228.272 69.485 C 229.111 62.138,229.138 62.058,231.429 59.834 C 233.682 57.649,234.107 57.511,235.550 58.491 M315.181 88.582 C 317.074 89.848,318.400 91.389,319.515 93.616 C 320.995 96.575,320.923 95.769,320.794 107.950 C 320.731 113.947,320.753 121.696,320.842 125.170 L 321.006 131.487 320.442 132.847 C 319.297 135.613,317.009 138.279,314.936 139.263 C 313.358 140.012,309.874 136.914,308.159 133.236 L 307.615 132.070 307.628 114.349 L 307.641 96.629 308.372 94.913 C 309.585 92.068,311.080 90.136,313.150 88.742 C 314.383 87.912,314.201 87.927,315.181 88.582 M120.597 117.298 C 121.025 120.529,120.880 129.438,120.352 132.264 L 120.025 134.014 119.891 133.139 C 119.739 132.148,119.348 123.697,119.324 120.894 C 119.315 119.879,119.446 117.779,119.615 116.229 C 119.783 114.679,119.933 113.236,119.947 113.022 C 119.962 112.809,120.038 113.115,120.117 113.703 C 120.196 114.291,120.412 115.909,120.597 117.298 " stroke="none" fill="#64540c" fill-rule="evenodd"></path><path id="path3" d="M0.000 3.304 L 0.000 6.608 2.867 6.605 C 6.731 6.600,6.608 6.724,6.608 2.839 L 6.608 0.000 3.304 0.000 L 0.000 0.000 0.000 3.304 M392.614 2.815 L 392.614 5.631 393.517 6.508 L 394.420 7.386 397.210 7.386 L 400.000 7.386 400.000 3.693 L 400.000 0.000 396.307 0.000 L 392.614 0.000 392.614 2.815 M61.905 32.784 C 58.054 33.638,54.549 36.029,53.121 38.776 C 52.617 39.745,51.506 43.539,51.506 44.290 C 51.506 44.408,51.114 45.212,50.636 46.078 C 50.157 46.944,49.429 48.498,49.019 49.531 L 48.273 51.409 48.415 56.074 C 48.493 58.639,48.565 79.368,48.574 102.138 L 48.591 143.537 49.178 147.911 C 50.053 154.431,50.023 154.307,50.902 155.122 C 51.317 155.508,51.722 156.033,51.802 156.289 C 52.533 158.621,55.461 160.729,59.378 161.743 C 61.824 162.377,74.592 162.442,76.871 161.833 C 82.554 160.313,84.426 157.657,84.749 150.649 C 85.158 141.785,84.985 50.102,84.555 47.307 C 83.042 37.494,81.488 34.947,75.856 33.058 C 74.706 32.673,63.410 32.451,61.905 32.784 M153.086 33.071 C 150.015 34.277,148.126 36.860,147.350 40.914 C 146.540 45.149,146.347 46.883,145.562 57.046 C 145.124 62.715,144.919 63.882,143.608 68.152 C 143.268 69.259,142.934 70.165,142.866 70.165 C 142.378 70.165,140.583 62.912,140.341 59.961 C 140.122 57.287,139.858 54.416,139.537 51.215 C 138.599 41.872,136.106 36.008,132.238 34.047 C 129.450 32.634,99.196 32.518,95.652 33.906 C 90.474 35.936,88.379 39.458,86.882 48.650 C 86.380 51.736,86.365 143.008,86.866 150.729 C 87.311 157.595,89.152 159.905,95.530 161.605 C 97.259 162.065,107.307 162.389,110.787 162.096 C 117.480 161.533,126.954 159.899,130.477 158.701 L 131.410 158.384 132.090 158.980 C 134.226 160.856,141.028 162.777,143.749 162.272 C 149.769 161.156,151.084 159.466,152.886 150.534 C 153.383 148.076,153.896 145.539,154.027 144.898 L 154.265 143.732 154.469 144.509 C 154.839 145.922,154.910 146.222,155.978 150.879 C 157.525 157.621,158.476 159.369,161.370 160.786 C 166.113 163.109,181.303 162.692,187.537 160.068 L 188.644 159.602 191.747 159.960 C 193.453 160.157,195.855 160.376,197.085 160.448 C 198.314 160.519,200.369 160.782,201.652 161.032 C 207.608 162.192,207.720 162.196,228.766 162.196 C 257.910 162.195,259.538 161.864,262.151 155.394 C 262.410 154.752,262.841 153.937,263.110 153.582 C 264.121 152.244,266.222 148.494,267.347 146.018 C 267.988 144.607,268.557 143.451,268.610 143.449 C 269.168 143.436,272.536 150.686,273.557 154.098 C 275.083 159.197,277.396 161.057,282.896 161.607 C 292.383 162.557,304.566 162.274,312.111 160.929 C 314.166 160.562,314.369 160.557,315.221 160.846 C 320.095 162.502,333.833 163.003,338.231 161.685 C 341.280 160.772,343.692 158.238,344.313 155.296 C 344.487 154.474,346.439 150.165,347.628 147.983 C 348.415 146.538,348.600 146.337,349.803 145.621 C 353.005 143.716,353.127 143.421,354.146 135.180 C 354.291 134.011,354.385 125.501,354.430 109.524 L 354.497 85.617 354.002 84.771 C 353.110 83.246,351.116 81.582,349.239 80.798 C 348.117 80.329,346.044 76.418,345.097 72.983 C 343.594 67.532,341.226 66.352,331.390 66.151 C 324.517 66.011,322.255 66.228,314.764 67.745 C 314.119 67.876,313.283 66.985,311.747 64.529 L 311.079 63.460 311.142 56.657 C 311.207 49.765,311.038 46.688,310.321 41.691 C 309.736 37.619,308.014 34.921,305.047 33.431 L 303.693 32.750 297.570 32.796 C 289.500 32.856,281.731 33.758,279.342 34.913 C 275.755 36.647,273.915 40.488,272.602 48.980 C 272.086 52.314,271.000 55.061,269.269 57.411 L 268.570 58.359 268.185 57.508 C 267.301 55.557,266.620 53.670,265.979 51.395 C 264.485 46.094,262.676 44.001,258.601 42.856 C 253.819 41.513,251.813 40.443,251.020 38.810 C 249.405 35.483,246.997 33.958,242.857 33.643 C 241.254 33.521,238.848 33.336,237.512 33.232 C 232.357 32.831,211.591 32.754,209.329 33.128 C 205.861 33.701,202.549 34.511,200.583 35.268 C 200.209 35.412,198.678 35.678,197.182 35.859 C 195.685 36.041,193.129 36.404,191.502 36.667 L 188.544 37.145 187.518 36.383 C 185.734 35.060,183.007 34.002,179.495 33.272 C 176.631 32.677,154.518 32.508,153.086 33.071 M75.333 37.543 C 78.206 39.564,79.583 42.152,81.211 48.596 L 81.924 51.419 81.821 98.839 C 81.717 146.053,81.715 146.276,81.287 150.321 L 80.857 154.383 80.075 155.419 C 79.183 156.601,77.852 157.656,75.930 158.707 L 74.601 159.433 68.726 159.530 L 62.852 159.627 61.018 158.820 C 58.979 157.923,56.903 156.466,55.906 155.233 C 55.150 154.297,55.208 154.632,54.520 147.244 L 54.033 142.011 54.038 96.710 C 54.043 46.268,53.916 51.299,55.289 47.152 C 57.209 41.355,58.412 39.527,61.614 37.541 L 62.877 36.757 68.530 36.746 L 74.184 36.735 75.333 37.543 M160.447 37.240 C 164.899 37.568,166.889 37.592,173.110 37.395 L 177.221 37.264 179.513 38.392 C 182.879 40.047,185.316 42.740,187.668 47.402 C 188.159 48.377,188.597 49.174,188.641 49.174 C 188.685 49.174,189.532 48.752,190.522 48.235 C 192.553 47.176,195.973 45.710,198.258 44.918 C 199.470 44.498,200.025 44.167,200.922 43.331 C 204.014 40.447,206.097 39.192,209.936 37.897 C 212.033 37.190,231.870 37.492,236.832 38.306 C 242.052 39.163,245.495 40.047,246.658 40.830 C 249.008 42.412,251.660 43.558,255.401 44.607 C 259.786 45.838,262.814 48.784,263.657 52.642 C 264.249 55.350,265.303 58.689,266.263 60.895 L 267.210 63.071 267.570 68.222 C 267.897 72.899,267.929 76.013,267.913 102.138 L 267.897 130.904 267.298 133.333 C 266.969 134.670,266.427 137.162,266.095 138.873 C 265.127 143.855,264.116 146.089,260.710 150.771 C 256.992 155.882,255.161 157.030,248.028 158.722 L 245.967 159.212 228.183 159.243 L 210.398 159.274 207.769 158.577 C 206.323 158.193,204.268 157.524,203.202 157.089 C 202.136 156.655,200.826 156.125,200.292 155.912 C 199.757 155.698,198.489 155.375,197.473 155.192 C 192.949 154.381,193.275 154.628,189.869 149.417 C 189.187 148.374,188.603 147.602,188.570 147.700 C 188.538 147.798,188.272 149.346,187.980 151.140 L 187.448 154.402 186.095 155.444 C 184.412 156.741,181.861 157.984,179.223 158.793 L 177.201 159.413 171.448 159.244 L 165.695 159.076 164.634 158.498 C 161.653 156.875,160.461 155.152,159.753 151.440 C 157.554 139.921,156.475 135.654,154.804 131.879 L 154.289 130.715 153.712 132.364 C 152.964 134.499,151.965 138.383,151.313 141.691 C 151.028 143.134,150.631 145.146,150.431 146.161 C 150.230 147.177,149.838 149.406,149.559 151.114 C 148.841 155.513,147.683 157.252,144.282 159.039 L 142.901 159.765 141.387 159.271 C 136.816 157.779,134.607 155.979,132.776 152.256 C 132.138 150.958,131.531 149.844,131.427 149.780 C 130.889 149.448,126.929 151.949,125.515 153.514 C 124.625 154.498,124.486 154.571,121.291 155.703 C 119.843 156.216,117.916 156.909,117.009 157.241 C 115.021 157.970,113.313 158.436,110.593 158.992 C 108.373 159.446,109.176 159.467,98.648 158.682 C 95.453 158.444,91.728 155.631,91.462 153.256 C 91.391 152.614,91.120 150.064,90.862 147.588 L 90.392 143.086 90.372 97.006 L 90.353 50.926 91.068 48.673 C 92.829 43.129,95.757 38.915,98.056 38.612 C 109.936 37.049,117.752 37.093,129.155 38.788 C 131.869 39.191,132.502 39.760,134.375 43.483 C 136.526 47.757,137.054 50.283,137.614 58.989 C 138.045 65.684,139.857 73.293,141.798 76.555 C 142.915 78.433,142.783 78.401,143.663 77.015 C 144.929 75.019,145.407 73.773,146.253 70.262 C 147.586 64.726,147.853 62.781,148.117 56.657 C 148.516 47.410,150.173 40.979,152.903 38.085 L 154.189 36.722 155.277 36.831 C 155.876 36.891,158.202 37.075,160.447 37.240 M303.831 37.658 C 305.998 39.586,306.562 40.764,307.685 45.709 C 308.717 50.256,308.786 51.083,308.644 57.240 L 308.513 62.877 309.067 64.338 C 309.897 66.529,311.285 68.759,312.602 70.017 C 314.102 71.450,314.122 71.454,316.263 70.763 C 318.737 69.964,319.968 69.647,323.032 69.018 L 325.656 68.480 331.381 68.757 C 337.984 69.077,338.025 69.087,340.069 71.000 C 341.449 72.291,342.483 73.863,342.912 75.323 C 343.678 77.925,345.588 81.967,347.142 84.269 L 348.105 85.697 348.105 108.894 L 348.105 132.092 347.617 135.214 C 347.349 136.931,347.004 139.345,346.851 140.578 C 346.590 142.681,346.502 142.961,345.411 145.122 C 343.932 148.055,343.022 150.042,342.054 152.456 C 339.786 158.116,338.584 158.744,328.045 159.780 C 323.950 160.183,319.314 158.729,315.509 155.849 L 314.223 154.876 312.770 155.585 C 306.834 158.481,295.771 160.070,289.116 158.982 C 279.403 157.394,278.110 156.685,277.085 152.381 C 276.323 149.178,275.547 146.636,274.645 144.388 C 274.212 143.310,273.858 142.308,273.858 142.163 C 273.858 140.992,272.088 134.963,271.101 132.772 C 270.136 130.630,269.951 124.385,270.025 96.275 C 270.085 73.512,270.092 73.138,270.517 70.457 C 270.755 68.960,271.066 66.673,271.210 65.374 C 271.467 63.046,271.484 62.992,272.414 61.592 C 273.921 59.326,274.987 56.265,275.595 52.456 C 276.019 49.806,277.760 45.234,279.333 42.637 C 280.845 40.143,288.020 37.679,294.849 37.309 C 296.827 37.202,298.707 37.086,299.028 37.053 C 299.349 37.019,300.376 36.977,301.311 36.960 L 303.012 36.929 303.831 37.658 M233.617 59.422 C 230.409 61.836,230.279 62.171,229.166 70.865 C 228.724 74.320,228.564 116.219,228.952 126.878 L 229.124 131.599 229.743 132.565 C 230.453 133.671,232.671 135.785,233.681 136.318 L 234.364 136.678 235.520 135.893 C 236.800 135.024,238.259 133.495,238.975 132.274 C 239.675 131.078,239.842 124.360,239.843 97.182 L 239.844 74.344 239.363 70.651 C 239.099 68.620,238.739 66.019,238.564 64.872 L 238.244 62.785 237.149 61.495 C 236.547 60.786,235.657 59.915,235.172 59.560 L 234.290 58.915 233.617 59.422 M235.541 64.723 C 235.767 65.739,236.237 67.969,236.586 69.679 L 237.221 72.789 237.221 99.903 C 237.221 114.815,237.145 128.058,237.054 129.332 L 236.887 131.647 235.667 132.898 C 234.258 134.341,234.303 134.344,232.707 132.716 L 231.693 131.681 231.494 127.016 C 231.384 124.446,231.294 111.441,231.294 98.051 L 231.293 73.751 231.782 70.962 C 232.051 69.428,232.353 67.812,232.454 67.371 C 232.554 66.930,232.822 65.739,233.049 64.723 C 233.311 63.548,233.611 62.716,233.873 62.434 L 234.286 61.991 234.708 62.434 C 234.986 62.725,235.271 63.509,235.541 64.723 M312.972 90.428 C 311.704 91.534,310.183 93.656,309.236 95.639 L 308.638 96.890 308.750 107.775 C 308.812 113.761,308.786 121.545,308.692 125.073 L 308.521 131.487 309.187 132.750 C 310.344 134.945,311.804 136.682,313.464 137.835 L 314.295 138.412 315.116 137.783 C 317.089 136.271,318.349 134.751,319.369 132.653 L 319.841 131.681 319.804 114.163 C 319.761 94.284,319.937 96.389,318.066 93.387 C 317.263 92.098,314.721 89.407,314.307 89.407 C 314.216 89.407,313.616 89.866,312.972 90.428 M315.674 94.280 C 317.708 96.925,317.577 96.005,317.336 105.928 C 317.179 112.424,317.185 116.699,317.363 123.099 L 317.598 131.620 316.738 132.817 C 316.264 133.475,315.519 134.359,315.081 134.782 L 314.286 135.550 313.492 134.782 C 313.056 134.359,312.291 133.472,311.792 132.809 L 310.884 131.605 311.026 128.242 C 311.103 126.392,311.151 118.570,311.131 110.858 L 311.094 96.838 311.650 95.990 C 312.645 94.469,314.133 92.693,314.351 92.766 C 314.468 92.805,315.064 93.486,315.674 94.280 M393.720 187.912 C 393.200 188.454,393.197 188.470,393.197 191.410 L 393.197 194.363 396.599 194.363 L 400.000 194.363 400.000 190.865 L 400.000 187.366 397.121 187.366 L 394.242 187.366 393.720 187.912 M0.000 190.962 L 0.000 194.363 3.401 194.363 L 6.803 194.363 6.803 191.560 L 6.803 188.757 6.205 188.159 L 5.607 187.561 2.803 187.561 L 0.000 187.561 0.000 190.962 " stroke="none" fill="#947614" fill-rule="evenodd"></path><path id="path4" d="M61.614 37.541 C 58.412 39.527,57.209 41.355,55.289 47.152 C 53.916 51.299,54.043 46.268,54.038 96.710 L 54.033 142.011 54.520 147.244 C 55.208 154.632,55.150 154.297,55.906 155.233 C 56.903 156.466,58.979 157.923,61.018 158.820 L 62.852 159.627 68.726 159.530 L 74.601 159.433 75.930 158.707 C 77.852 157.656,79.183 156.601,80.075 155.419 L 80.857 154.383 81.287 150.321 C 81.715 146.276,81.717 146.053,81.821 98.839 L 81.924 51.419 81.211 48.596 C 79.583 42.152,78.206 39.564,75.333 37.543 L 74.184 36.735 68.530 36.746 L 62.877 36.757 61.614 37.541 M152.903 38.085 C 150.173 40.979,148.516 47.410,148.117 56.657 C 147.853 62.781,147.586 64.726,146.253 70.262 C 145.407 73.773,144.929 75.019,143.663 77.015 C 142.783 78.401,142.915 78.433,141.798 76.555 C 139.857 73.293,138.045 65.684,137.614 58.989 C 137.054 50.283,136.526 47.757,134.375 43.483 C 132.502 39.760,131.869 39.191,129.155 38.788 C 117.752 37.093,109.936 37.049,98.056 38.612 C 95.757 38.915,92.829 43.129,91.068 48.673 L 90.353 50.926 90.372 97.006 L 90.392 143.086 90.862 147.588 C 91.120 150.064,91.391 152.614,91.462 153.256 C 91.728 155.631,95.453 158.444,98.648 158.682 C 109.176 159.467,108.373 159.446,110.593 158.992 C 113.313 158.436,115.021 157.970,117.009 157.241 C 117.916 156.909,119.843 156.216,121.291 155.703 C 124.486 154.571,124.625 154.498,125.515 153.514 C 126.929 151.949,130.889 149.448,131.427 149.780 C 131.531 149.844,132.138 150.958,132.776 152.256 C 134.607 155.979,136.816 157.779,141.387 159.271 L 142.901 159.765 144.282 159.039 C 147.683 157.252,148.841 155.513,149.559 151.114 C 149.838 149.406,150.230 147.177,150.431 146.161 C 150.631 145.146,151.028 143.134,151.313 141.691 C 151.965 138.383,152.964 134.499,153.712 132.364 L 154.289 130.715 154.804 131.879 C 156.475 135.654,157.554 139.921,159.753 151.440 C 160.461 155.152,161.653 156.875,164.634 158.498 L 165.695 159.076 171.448 159.244 L 177.201 159.413 179.223 158.793 C 181.861 157.984,184.412 156.741,186.095 155.444 L 187.448 154.402 187.980 151.140 C 188.272 149.346,188.538 147.798,188.570 147.700 C 188.603 147.602,189.187 148.374,189.869 149.417 C 193.275 154.628,192.949 154.381,197.473 155.192 C 198.489 155.375,199.757 155.698,200.292 155.912 C 200.826 156.125,202.136 156.655,203.202 157.089 C 204.268 157.524,206.323 158.193,207.769 158.577 L 210.398 159.274 228.183 159.243 L 245.967 159.212 248.028 158.722 C 255.161 157.030,256.992 155.882,260.710 150.771 C 264.116 146.089,265.127 143.855,266.095 138.873 C 266.427 137.162,266.969 134.670,267.298 133.333 L 267.897 130.904 267.913 102.138 C 267.929 76.013,267.897 72.899,267.570 68.222 L 267.210 63.071 266.263 60.895 C 265.303 58.689,264.249 55.350,263.657 52.642 C 262.814 48.784,259.786 45.838,255.401 44.607 C 251.660 43.558,249.008 42.412,246.658 40.830 C 245.495 40.047,242.052 39.163,236.832 38.306 C 231.870 37.492,212.033 37.190,209.936 37.897 C 206.097 39.192,204.014 40.447,200.922 43.331 C 200.025 44.167,199.470 44.498,198.258 44.918 C 195.973 45.710,192.553 47.176,190.522 48.235 C 189.532 48.752,188.685 49.174,188.641 49.174 C 188.597 49.174,188.159 48.377,187.668 47.402 C 185.316 42.740,182.879 40.047,179.513 38.392 L 177.221 37.264 173.110 37.395 C 166.071 37.618,161.790 37.483,155.277 36.831 L 154.189 36.722 152.903 38.085 M299.028 37.053 C 298.707 37.086,296.827 37.202,294.849 37.309 C 288.020 37.679,280.845 40.143,279.333 42.637 C 277.760 45.234,276.019 49.806,275.595 52.456 C 274.987 56.265,273.921 59.326,272.414 61.592 C 271.484 62.992,271.467 63.046,271.210 65.374 C 271.066 66.673,270.755 68.960,270.517 70.457 C 270.092 73.138,270.085 73.512,270.025 96.275 C 269.951 124.385,270.136 130.630,271.101 132.772 C 272.088 134.963,273.858 140.992,273.858 142.163 C 273.858 142.308,274.212 143.310,274.645 144.388 C 275.547 146.636,276.323 149.178,277.085 152.381 C 278.010 156.263,278.921 156.945,284.840 158.192 C 294.543 160.235,305.296 159.231,312.770 155.585 L 314.223 154.876 315.509 155.849 C 319.314 158.729,323.950 160.183,328.045 159.780 C 338.584 158.744,339.786 158.116,342.054 152.456 C 343.022 150.042,343.932 148.055,345.411 145.122 C 346.502 142.961,346.590 142.681,346.851 140.578 C 347.004 139.345,347.349 136.931,347.617 135.214 L 348.105 132.092 348.105 108.894 L 348.105 85.697 347.142 84.269 C 345.588 81.967,343.678 77.925,342.912 75.323 C 342.483 73.863,341.449 72.291,340.069 71.000 C 338.025 69.087,337.984 69.077,331.381 68.757 L 325.656 68.480 323.032 69.018 C 319.968 69.647,318.737 69.964,316.263 70.763 C 314.122 71.454,314.102 71.450,312.602 70.017 C 311.285 68.759,309.897 66.529,309.067 64.338 L 308.513 62.877 308.644 57.240 C 308.786 51.083,308.717 50.256,307.685 45.709 C 306.562 40.764,305.998 39.586,303.831 37.658 L 303.012 36.929 301.311 36.960 C 300.376 36.977,299.349 37.019,299.028 37.053 M75.214 39.258 C 76.627 40.441,78.293 43.774,79.732 48.299 L 80.535 50.826 80.487 97.668 C 80.435 147.967,80.491 144.648,79.560 152.964 C 79.359 154.761,78.021 156.288,75.393 157.718 L 74.403 158.257 68.640 158.359 L 62.877 158.461 61.442 157.751 C 59.802 156.940,58.527 156.042,57.495 154.971 L 56.778 154.227 56.232 149.854 L 55.686 145.481 55.634 98.273 L 55.582 51.065 56.380 48.720 C 57.887 44.292,60.026 40.489,61.728 39.212 L 62.682 38.496 68.486 38.490 L 74.290 38.484 75.214 39.258 M158.221 38.773 C 160.087 38.933,162.547 39.158,163.688 39.273 C 165.194 39.426,167.307 39.423,171.399 39.263 L 177.036 39.041 178.157 39.588 C 180.599 40.782,184.570 45.518,186.668 49.738 L 187.498 51.409 187.350 57.629 C 187.268 61.050,187.194 81.822,187.185 103.790 L 187.169 143.732 186.702 146.356 C 186.445 147.799,185.987 150.198,185.684 151.687 L 185.134 154.394 183.967 155.150 C 182.577 156.050,180.838 156.884,178.728 157.664 L 177.185 158.235 171.440 158.014 L 165.695 157.793 164.798 157.222 C 162.947 156.042,161.801 154.583,161.531 153.059 C 161.398 152.312,160.908 149.733,160.443 147.328 C 159.977 144.922,159.456 142.123,159.285 141.108 C 158.269 135.095,156.961 130.674,155.246 127.454 C 154.259 125.600,154.298 125.597,153.551 127.551 C 151.972 131.684,150.739 136.676,149.482 144.023 C 149.162 145.894,148.728 148.431,148.517 149.660 C 148.307 150.889,148.074 152.376,148.000 152.964 C 147.771 154.779,146.071 156.880,143.859 158.081 L 142.847 158.631 141.536 158.130 C 138.475 156.960,135.814 154.984,135.195 153.421 C 134.064 150.564,131.666 146.161,131.241 146.161 C 125.378 146.161,120.611 149.159,119.990 153.237 C 119.788 154.569,118.879 155.117,114.383 156.619 C 109.084 158.389,109.386 158.373,99.320 157.415 C 96.835 157.179,96.129 156.856,94.222 155.082 L 93.302 154.227 92.913 151.118 C 91.890 142.958,91.947 146.072,91.926 96.890 C 91.905 45.642,91.767 50.610,93.302 47.288 C 95.767 41.953,96.596 41.129,100.097 40.539 C 106.355 39.486,107.254 39.424,115.063 39.510 L 122.352 39.590 125.948 40.305 C 127.925 40.698,129.969 41.075,130.490 41.142 C 133.101 41.480,135.819 48.553,136.339 56.365 C 137.152 68.573,138.788 75.356,141.990 79.787 C 142.960 81.130,142.825 81.172,144.198 79.088 C 146.872 75.030,148.403 68.852,148.986 59.767 C 149.574 50.620,149.623 50.164,150.324 47.425 C 151.761 41.808,153.320 38.484,154.517 38.484 C 154.688 38.484,156.355 38.614,158.221 38.773 M303.684 39.277 C 304.443 40.117,304.730 40.697,305.695 43.343 C 307.465 48.197,307.812 50.553,307.624 56.463 C 307.438 62.323,307.484 63.207,308.070 64.917 C 309.142 68.044,310.987 70.667,313.171 72.168 L 314.248 72.907 314.996 72.587 C 319.399 70.699,323.912 69.676,327.697 69.709 C 338.735 69.804,340.163 70.524,342.282 77.065 C 343.180 79.840,344.530 82.868,345.645 84.611 L 346.365 85.736 346.301 109.486 C 346.245 130.654,346.202 133.500,345.904 135.666 C 345.720 137.002,345.455 139.190,345.316 140.529 C 345.077 142.822,345.012 143.059,344.176 144.631 C 343.179 146.506,341.506 150.255,340.519 152.829 C 339.793 154.722,338.247 156.686,337.109 157.162 C 336.460 157.433,330.586 158.431,327.547 158.787 C 323.571 159.253,317.319 156.435,315.209 153.226 C 314.226 151.731,314.488 151.722,312.572 153.312 C 310.543 154.995,308.008 156.113,303.887 157.143 C 303.246 157.303,300.150 157.597,297.008 157.796 L 291.294 158.158 288.261 157.514 C 285.626 156.954,284.041 156.552,280.804 155.620 C 279.497 155.243,279.183 154.708,278.624 151.895 C 277.964 148.577,277.264 145.751,276.671 144.007 C 276.407 143.230,276.190 142.310,276.190 141.962 C 276.190 140.570,275.379 135.259,274.888 133.431 L 274.365 131.487 274.289 103.790 C 274.206 73.061,274.406 64.122,275.222 62.196 C 276.039 60.267,276.681 57.033,277.151 52.478 C 277.314 50.896,277.872 49.275,279.189 46.550 L 280.035 44.801 282.049 43.550 C 287.045 40.448,289.958 39.367,294.160 39.057 C 295.662 38.946,297.852 38.784,299.028 38.697 C 303.031 38.400,302.874 38.381,303.684 39.277 M225.656 39.469 L 234.111 39.688 237.067 40.338 C 238.692 40.696,241.316 41.224,242.898 41.511 C 244.724 41.843,245.966 42.170,246.304 42.408 C 247.845 43.493,251.167 44.742,254.962 45.661 C 256.296 45.985,257.624 46.431,257.974 46.674 C 260.383 48.343,262.226 50.694,262.459 52.391 C 262.782 54.746,264.888 61.915,265.478 62.667 C 265.569 62.782,265.702 64.582,265.774 66.667 C 265.846 68.751,265.986 71.506,266.087 72.789 C 266.649 79.993,266.194 130.926,265.542 133.819 C 265.325 134.781,264.868 137.230,264.528 139.261 C 263.814 143.513,263.510 144.238,260.623 148.539 C 257.350 153.417,255.569 154.789,249.998 156.729 C 246.189 158.054,247.277 157.986,228.474 158.072 L 211.370 158.150 209.329 157.615 C 206.811 156.954,204.440 156.091,202.527 155.137 C 200.940 154.346,200.944 154.353,200.202 151.472 C 200.072 150.969,199.453 149.968,198.577 148.848 C 195.718 145.187,194.135 142.803,194.283 142.379 C 194.520 141.701,194.625 63.437,194.391 62.002 C 193.859 58.732,193.235 54.290,193.079 52.658 L 192.956 51.381 195.263 50.217 C 196.532 49.576,198.128 48.815,198.810 48.525 C 199.492 48.235,200.235 47.760,200.462 47.471 C 202.787 44.502,207.519 40.733,210.388 39.564 C 211.519 39.104,211.569 39.104,225.656 39.469 M233.236 58.334 C 232.037 59.151,230.631 60.545,229.822 61.718 C 229.045 62.844,229.011 63.014,228.272 69.485 L 227.762 73.955 227.826 102.624 L 227.891 131.293 228.564 132.556 C 229.412 134.150,231.588 136.337,233.146 137.161 L 234.319 137.782 235.575 137.077 C 237.103 136.220,238.926 134.416,239.845 132.854 L 240.525 131.697 240.652 127.024 C 240.939 116.447,240.835 74.475,240.514 71.405 C 239.628 62.928,239.483 62.378,237.592 60.274 C 236.747 59.335,234.632 57.718,234.267 57.732 C 234.181 57.735,233.717 58.006,233.236 58.334 M237.149 61.495 L 238.244 62.785 238.564 64.872 C 238.739 66.019,239.099 68.620,239.363 70.651 L 239.844 74.344 239.843 97.182 C 239.842 124.360,239.675 131.078,238.975 132.274 C 238.259 133.495,236.800 135.024,235.520 135.893 L 234.364 136.678 233.681 136.318 C 232.671 135.785,230.453 133.671,229.743 132.565 L 229.124 131.599 228.952 126.878 C 228.564 116.219,228.724 74.320,229.166 70.865 C 230.279 62.171,230.409 61.836,233.617 59.422 L 234.290 58.915 235.172 59.560 C 235.657 59.915,236.547 60.786,237.149 61.495 M313.150 88.742 C 311.080 90.136,309.585 92.068,308.372 94.913 L 307.641 96.629 307.628 114.349 L 307.615 132.070 308.159 133.236 C 309.874 136.914,313.358 140.012,314.936 139.263 C 317.009 138.279,319.297 135.613,320.442 132.847 L 321.006 131.487 320.842 125.170 C 320.753 121.696,320.731 113.947,320.794 107.950 C 320.923 95.769,320.995 96.575,319.515 93.616 C 318.400 91.389,317.074 89.848,315.181 88.582 C 314.201 87.927,314.383 87.912,313.150 88.742 M315.824 90.682 C 317.164 91.946,318.585 93.974,319.362 95.731 C 319.761 96.632,319.767 96.886,319.804 114.163 L 319.841 131.681 319.369 132.653 C 318.349 134.751,317.089 136.271,315.116 137.783 L 314.295 138.412 313.464 137.835 C 311.804 136.682,310.344 134.945,309.187 132.750 L 308.521 131.487 308.692 125.073 C 308.786 121.545,308.812 113.761,308.750 107.775 L 308.638 96.890 309.236 95.639 C 310.457 93.082,313.448 89.407,314.307 89.407 C 314.398 89.407,315.081 89.981,315.824 90.682 M119.947 113.022 C 119.933 113.236,119.783 114.679,119.615 116.229 C 119.446 117.779,119.315 119.879,119.324 120.894 C 119.348 123.697,119.739 132.148,119.891 133.139 L 120.025 134.014 120.352 132.264 C 120.578 131.054,120.718 128.868,120.805 125.170 C 120.935 119.704,120.942 119.828,120.117 113.703 C 120.038 113.115,119.962 112.809,119.947 113.022 " stroke="none" fill="#74640c" fill-rule="evenodd"></path></g></svg>