<svg id="svg" version="1.1" xmlns="http://www.w3.org/2000/svg" xmlns:xlink="http://www.w3.org/1999/xlink" width="400" height="366.6666666666667" viewBox="0, 0, 400,366.6666666666667"><g id="svgg"><path id="path0" d="M81.835 25.696 C 76.339 26.240,75.995 26.770,75.479 35.501 L 75.104 41.835 51.956 41.837 C 28.374 41.839,26.416 41.943,25.724 43.235 C 25.538 43.584,25.265 47.102,25.120 51.053 L 24.854 58.237 17.669 58.486 C 7.471 58.839,8.440 56.844,8.440 77.482 L 8.440 91.743 4.220 91.743 L 0.000 91.743 0.000 93.211 L 0.000 94.679 4.220 94.679 C 7.727 94.679,8.440 94.772,8.440 95.229 C 8.440 95.687,7.727 95.780,4.220 95.780 L 0.000 95.780 0.000 179.450 L 0.000 263.119 4.177 263.119 L 8.353 263.119 8.616 266.631 C 8.761 268.562,8.781 270.241,8.660 270.361 C 8.539 270.482,8.440 269.728,8.440 268.685 L 8.440 266.789 4.220 266.789 L 0.000 266.789 0.000 270.642 L 0.000 274.495 4.166 274.495 L 8.333 274.495 8.535 289.083 C 8.813 309.042,8.275 307.944,17.881 308.156 C 26.276 308.342,25.688 308.119,25.688 311.118 C 25.688 322.533,26.856 323.727,38.886 324.607 C 49.599 325.391,350.401 325.391,361.114 324.607 C 373.144 323.727,374.312 322.533,374.312 311.118 C 374.312 308.119,373.724 308.342,382.119 308.156 C 391.725 307.944,391.187 309.042,391.465 289.083 L 391.667 274.495 395.834 274.495 L 400.000 274.495 400.000 270.642 L 400.000 266.789 395.780 266.789 L 391.560 266.789 391.560 268.685 C 391.560 269.728,391.461 270.482,391.340 270.361 C 391.219 270.241,391.239 268.562,391.384 266.631 L 391.647 263.119 395.823 263.119 L 400.000 263.119 400.000 180.367 L 400.000 97.615 395.821 97.615 L 391.643 97.615 391.390 95.930 C 391.251 95.003,391.233 94.150,391.349 94.034 C 391.465 93.918,391.560 94.263,391.560 94.801 L 391.560 95.780 395.780 95.780 L 400.000 95.780 400.000 93.945 L 400.000 92.110 395.804 92.110 L 391.609 92.110 391.482 76.422 C 391.412 67.794,391.216 60.440,391.047 60.082 C 390.507 58.936,389.668 58.785,382.341 58.514 L 375.158 58.249 374.909 51.064 C 374.635 43.153,374.448 42.468,372.456 42.069 C 371.812 41.940,360.847 41.835,348.090 41.835 L 324.896 41.835 324.521 35.501 C 323.996 26.621,323.741 26.258,317.615 25.662 C 313.633 25.275,85.762 25.307,81.835 25.696 M282.018 27.700 C 284.642 27.995,287.615 28.424,288.624 28.654 C 289.633 28.883,294.922 29.176,300.376 29.306 L 310.294 29.541 312.733 30.743 C 316.613 32.654,320.734 38.189,320.734 41.489 C 320.734 42.918,318.981 41.580,317.911 39.334 C 314.735 32.667,312.100 31.438,300.367 31.153 C 292.532 30.962,290.791 30.815,288.440 30.143 C 280.518 27.879,280.904 27.890,208.586 27.890 C 134.505 27.890,126.462 28.117,110.642 30.659 C 108.478 31.007,104.521 31.190,99.164 31.191 L 90.988 31.193 88.889 32.259 C 86.060 33.695,83.511 36.348,82.089 39.334 C 81.019 41.580,79.266 42.918,79.266 41.489 C 79.266 38.189,83.387 32.654,87.267 30.743 L 89.707 29.541 100.174 29.302 C 105.932 29.170,112.376 28.869,114.495 28.633 C 125.667 27.387,134.019 27.257,205.872 27.210 C 266.323 27.170,277.978 27.245,282.018 27.700 M78.073 42.088 C 77.720 42.180,77.142 42.180,76.789 42.088 C 76.436 41.996,76.725 41.920,77.431 41.920 C 78.138 41.920,78.427 41.996,78.073 42.088 M323.211 42.088 C 322.858 42.180,322.280 42.180,321.927 42.088 C 321.573 41.996,321.862 41.920,322.569 41.920 C 323.275 41.920,323.564 41.996,323.211 42.088 M70.183 42.476 C 66.904 42.537,61.537 42.537,58.257 42.476 C 54.977 42.416,57.661 42.366,64.220 42.366 C 70.780 42.366,73.463 42.416,70.183 42.476 M342.844 42.476 C 339.362 42.537,333.665 42.537,330.183 42.476 C 326.702 42.416,329.550 42.367,336.514 42.367 C 343.477 42.367,346.326 42.416,342.844 42.476 M46.422 42.947 C 30.983 43.685,28.326 45.423,26.801 55.780 C 26.295 59.216,25.931 59.521,21.650 60.104 C 11.738 61.454,10.063 64.154,9.423 79.817 C 9.365 81.229,9.286 80.317,9.246 77.789 C 9.019 63.230,10.805 60.502,21.249 59.460 C 25.657 59.020,26.052 58.797,26.062 56.744 C 26.119 44.922,29.347 42.650,46.055 42.675 L 51.927 42.684 46.422 42.947 M366.972 43.493 C 371.816 44.625,373.389 47.150,373.825 54.495 C 374.081 58.813,374.443 59.446,376.662 59.457 C 388.304 59.513,391.003 63.321,390.756 79.343 C 390.718 81.824,390.636 82.862,390.574 81.651 C 389.681 64.208,388.235 61.795,377.715 60.190 C 374.044 59.630,373.969 59.546,373.349 55.315 C 371.865 45.186,369.613 43.646,355.229 42.923 L 349.541 42.638 356.881 42.744 C 362.268 42.822,364.952 43.021,366.972 43.493 M57.890 43.556 C 57.537 43.648,56.959 43.648,56.606 43.556 C 56.252 43.463,56.541 43.388,57.248 43.388 C 57.954 43.388,58.243 43.463,57.890 43.556 M343.766 43.555 C 343.415 43.647,342.754 43.650,342.298 43.562 C 341.841 43.475,342.128 43.399,342.936 43.395 C 343.743 43.391,344.117 43.463,343.766 43.555 M50.917 43.923 C 50.564 44.015,49.986 44.015,49.633 43.923 C 49.280 43.830,49.569 43.755,50.275 43.755 C 50.982 43.755,51.271 43.830,50.917 43.923 M352.206 43.922 C 351.855 44.014,351.195 44.017,350.738 43.929 C 350.282 43.841,350.569 43.766,351.376 43.762 C 352.183 43.758,352.557 43.830,352.206 43.922 M45.780 44.290 C 45.427 44.382,44.849 44.382,44.495 44.290 C 44.142 44.197,44.431 44.122,45.138 44.122 C 45.844 44.122,46.133 44.197,45.780 44.290 M358.078 44.289 C 357.727 44.381,357.066 44.384,356.610 44.296 C 356.153 44.208,356.440 44.133,357.248 44.129 C 358.055 44.125,358.429 44.197,358.078 44.289 M42.844 44.657 C 42.491 44.749,41.913 44.749,41.560 44.657 C 41.206 44.564,41.495 44.489,42.202 44.489 C 42.908 44.489,43.197 44.564,42.844 44.657 M38.716 45.463 C 33.276 47.044,30.762 49.350,29.118 54.263 C 28.670 55.602,28.293 56.434,28.280 56.112 C 28.086 51.224,34.967 44.688,40.183 44.806 C 40.587 44.815,39.927 45.111,38.716 45.463 M365.341 46.080 C 368.578 47.612,370.834 50.536,371.549 54.128 C 371.670 54.734,371.364 54.179,370.870 52.896 C 369.612 49.628,368.263 48.117,365.171 46.514 C 362.172 44.959,362.297 44.640,365.341 46.080 M26.924 59.407 L 25.519 60.734 26.704 59.432 C 27.356 58.716,27.909 57.808,27.932 57.414 C 27.973 56.733,27.984 56.732,28.152 57.389 C 28.272 57.856,27.873 58.511,26.924 59.407 M375.963 61.390 C 376.678 61.562,376.678 61.567,375.940 61.609 C 375.514 61.633,374.713 61.131,374.105 60.459 L 373.028 59.266 374.128 60.240 C 374.734 60.775,375.560 61.293,375.963 61.390 M379.923 62.359 C 384.707 64.005,387.632 67.626,388.415 72.874 C 388.571 73.915,388.445 73.705,387.961 72.110 C 386.241 66.450,383.943 64.008,378.790 62.360 C 377.639 61.992,376.960 61.682,377.282 61.671 C 377.604 61.660,378.792 61.970,379.923 62.359 M18.532 62.916 C 16.029 64.083,14.517 65.498,13.219 67.890 C 11.948 70.231,11.753 70.110,12.891 67.688 C 14.079 65.161,17.916 62.040,19.817 62.056 C 20.119 62.059,19.541 62.446,18.532 62.916 M382.959 67.248 L 384.037 68.440 382.844 67.363 C 381.732 66.358,381.483 66.055,381.766 66.055 C 381.829 66.055,382.366 66.592,382.959 67.248 M11.900 71.350 C 11.765 71.888,11.584 72.257,11.498 72.170 C 11.411 72.084,11.451 71.573,11.586 71.035 C 11.721 70.498,11.902 70.128,11.989 70.215 C 12.075 70.301,12.035 70.812,11.900 71.350 M10.895 77.339 C 10.803 77.693,10.727 77.404,10.727 76.697 C 10.727 75.991,10.803 75.702,10.895 76.055 C 10.987 76.408,10.987 76.986,10.895 77.339 M10.528 81.376 C 10.436 81.729,10.360 81.440,10.360 80.734 C 10.360 80.028,10.436 79.739,10.528 80.092 C 10.620 80.445,10.620 81.023,10.528 81.376 M9.079 90.183 C 9.009 91.546,8.951 90.431,8.951 87.706 C 8.951 84.982,9.009 83.867,9.079 85.229 C 9.150 86.592,9.150 88.821,9.079 90.183 M391.097 90.734 C 391.026 91.995,390.967 90.963,390.967 88.440 C 390.967 85.917,391.026 84.885,391.097 86.147 C 391.169 87.408,391.169 89.472,391.097 90.734 M174.954 141.314 C 174.119 141.800,173.938 208.781,174.771 209.457 C 175.084 209.712,175.986 209.680,177.615 209.355 C 178.927 209.093,180.774 208.772,181.719 208.641 C 183.260 208.427,183.535 208.238,184.366 206.820 C 185.523 204.846,188.326 202.047,190.323 200.873 C 191.383 200.250,191.902 199.662,192.051 198.920 C 192.519 196.579,195.076 194.577,198.611 193.785 C 199.955 193.484,214.753 191.927,216.272 191.927 C 216.532 191.927,217.021 191.347,217.359 190.639 C 218.228 188.815,220.770 186.152,223.023 184.705 C 224.338 183.860,225.014 183.154,225.165 182.469 C 225.753 179.805,226.559 177.954,227.720 176.597 L 228.994 175.109 226.332 174.540 C 224.868 174.228,221.802 173.795,219.519 173.578 C 212.953 172.955,210.037 171.427,208.780 167.954 C 208.491 167.153,207.904 166.483,207.188 166.138 C 205.411 165.282,202.574 162.592,201.228 160.486 C 200.253 158.962,199.752 158.525,198.807 158.373 C 198.151 158.267,196.211 157.938,194.495 157.640 C 192.780 157.343,189.990 156.916,188.297 156.690 C 180.442 155.646,178.117 153.437,176.872 145.833 C 176.042 140.761,176.597 140.356,177.609 145.295 C 179.112 152.628,181.428 154.722,189.618 156.150 C 191.358 156.453,193.397 156.867,194.149 157.070 C 194.901 157.272,197.309 157.689,199.501 157.996 L 203.486 158.555 205.899 160.947 C 207.894 162.925,208.425 163.716,208.963 165.510 C 210.433 170.420,213.973 172.555,222.018 173.384 C 223.330 173.519,225.826 173.969,227.565 174.384 L 230.727 175.137 229.319 176.409 C 227.551 178.006,226.251 180.686,225.545 184.189 C 225.022 186.787,224.887 187.022,222.577 189.349 L 220.157 191.788 214.758 192.443 C 211.788 192.804,207.589 193.317,205.428 193.583 C 196.810 194.646,193.012 197.082,192.059 202.159 C 191.884 203.097,191.131 204.123,189.278 205.950 L 186.738 208.455 183.920 208.825 C 182.369 209.029,179.730 209.459,178.054 209.779 C 173.520 210.646,173.970 214.421,173.957 175.394 C 173.945 141.326,173.961 140.892,175.211 140.929 C 175.423 140.935,175.307 141.108,174.954 141.314 M176.363 157.317 C 177.270 157.980,178.402 158.108,185.726 158.373 L 192.186 158.607 192.424 162.775 C 192.854 170.305,193.887 172.657,197.154 173.546 C 199.558 174.199,211.551 175.023,218.829 175.035 C 226.078 175.047,227.274 175.551,220.838 175.883 C 210.808 176.399,209.623 177.638,208.965 188.294 L 208.747 191.817 199.144 192.048 C 176.978 192.582,176.555 192.795,175.774 203.796 C 175.605 206.187,175.371 208.237,175.256 208.353 C 175.140 208.468,175.066 196.026,175.092 180.703 C 175.117 165.381,175.268 153.744,175.428 154.845 C 175.605 156.067,175.969 157.029,176.363 157.317 M209.144 194.638 C 209.060 194.717,207.747 195.036,206.226 195.348 C 200.644 196.492,197.179 198.539,194.941 202.018 C 194.681 202.422,194.845 202.032,195.306 201.152 C 196.790 198.319,200.008 196.367,205.138 195.191 C 207.821 194.575,209.452 194.350,209.144 194.638 M9.071 274.032 C 8.986 274.589,8.915 274.220,8.912 273.211 C 8.910 272.202,8.979 271.745,9.066 272.197 C 9.153 272.648,9.155 273.474,9.071 274.032 M391.093 275.872 C 391.014 276.628,390.949 276.009,390.949 274.495 C 390.949 272.982,391.014 272.362,391.093 273.119 C 391.172 273.876,391.172 275.115,391.093 275.872 M10.486 286.789 C 10.806 288.404,11.368 290.303,11.735 291.009 C 12.103 291.716,12.850 293.575,13.396 295.141 C 14.995 299.726,18.151 302.607,23.198 304.087 C 24.265 304.400,25.470 304.963,25.876 305.338 C 27.124 306.489,29.806 307.474,33.370 308.089 L 36.776 308.676 39.310 311.186 C 40.704 312.566,42.090 314.282,42.389 314.999 C 45.789 323.136,49.664 323.570,123.119 324.042 L 167.523 324.327 117.431 324.185 C 49.636 323.993,46.645 323.764,42.752 318.471 C 42.147 317.648,40.991 316.563,40.183 316.060 C 38.144 314.789,35.767 312.433,34.439 310.367 C 33.822 309.408,33.211 308.621,33.081 308.617 C 31.795 308.583,27.517 307.374,26.469 306.748 C 25.737 306.311,23.900 305.642,22.387 305.260 C 13.635 303.051,9.842 295.853,9.365 280.550 L 9.216 275.780 9.561 279.817 C 9.750 282.037,10.167 285.174,10.486 286.789 M390.708 282.110 C 390.483 286.699,390.323 287.564,388.507 294.015 C 386.457 301.299,384.205 303.646,377.783 305.194 C 376.379 305.533,374.817 306.084,374.312 306.419 C 372.887 307.364,368.574 308.624,366.760 308.624 C 366.717 308.624,366.178 309.408,365.561 310.367 C 364.233 312.433,361.856 314.789,359.817 316.060 C 359.009 316.563,357.853 317.648,357.248 318.471 C 353.355 323.764,350.364 323.993,282.569 324.185 L 232.477 324.327 276.881 324.042 C 350.336 323.570,354.211 323.136,357.611 314.999 C 358.857 312.016,362.979 308.667,365.918 308.250 C 369.820 307.697,372.082 306.941,374.071 305.527 C 375.049 304.832,376.369 304.153,377.007 304.019 C 381.181 303.138,385.056 299.558,386.619 295.141 C 387.173 293.575,388.014 291.468,388.487 290.459 C 389.542 288.210,390.024 285.749,390.333 281.039 C 390.463 279.055,390.652 277.431,390.753 277.431 C 390.854 277.431,390.834 279.537,390.708 282.110 " stroke="none" fill="#141c24" fill-rule="evenodd"></path><path id="path1" d="M126.422 27.730 C 121.982 27.990,116.615 28.397,114.495 28.633 C 112.376 28.869,105.932 29.170,100.174 29.302 L 89.707 29.541 87.267 30.743 C 83.387 32.654,79.266 38.189,79.266 41.489 C 79.266 42.918,81.019 41.580,82.089 39.334 C 83.511 36.348,86.060 33.695,88.889 32.259 L 90.988 31.193 99.164 31.191 C 104.521 31.190,108.478 31.007,110.642 30.659 C 126.462 28.117,134.505 27.890,208.586 27.890 C 280.904 27.890,280.518 27.879,288.440 30.143 C 290.791 30.815,292.532 30.962,300.367 31.153 C 312.100 31.438,314.735 32.667,317.911 39.334 C 318.981 41.580,320.734 42.918,320.734 41.489 C 320.734 38.189,316.613 32.654,312.733 30.743 L 310.294 29.541 300.376 29.306 C 294.922 29.176,289.633 28.883,288.624 28.654 C 282.225 27.200,279.995 27.161,205.872 27.210 C 152.524 27.245,132.456 27.377,126.422 27.730 M76.789 42.088 C 77.142 42.180,77.720 42.180,78.073 42.088 C 78.427 41.996,78.138 41.920,77.431 41.920 C 76.725 41.920,76.436 41.996,76.789 42.088 M321.927 42.088 C 322.280 42.180,322.858 42.180,323.211 42.088 C 323.564 41.996,323.275 41.920,322.569 41.920 C 321.862 41.920,321.573 41.996,321.927 42.088 M58.257 42.476 C 61.537 42.537,66.904 42.537,70.183 42.476 C 73.463 42.416,70.780 42.366,64.220 42.366 C 57.661 42.366,54.977 42.416,58.257 42.476 M330.183 42.476 C 333.665 42.537,339.362 42.537,342.844 42.476 C 346.326 42.416,343.477 42.367,336.514 42.367 C 329.550 42.367,326.702 42.416,330.183 42.476 M37.297 42.971 C 28.679 43.880,26.109 47.031,26.062 56.744 C 26.052 58.797,25.657 59.020,21.249 59.460 C 10.805 60.502,9.019 63.230,9.246 77.789 C 9.286 80.317,9.365 81.229,9.423 79.817 C 10.063 64.154,11.738 61.454,21.650 60.104 C 25.931 59.521,26.295 59.216,26.801 55.780 C 28.326 45.423,30.983 43.685,46.422 42.947 L 51.927 42.684 46.055 42.675 C 42.826 42.670,38.884 42.804,37.297 42.971 M355.229 42.923 C 369.613 43.646,371.865 45.186,373.349 55.315 C 373.969 59.546,374.044 59.630,377.715 60.190 C 388.235 61.795,389.681 64.208,390.574 81.651 C 390.636 82.862,390.718 81.824,390.756 79.343 C 391.003 63.321,388.304 59.513,376.662 59.457 C 374.443 59.446,374.081 58.813,373.825 54.495 C 373.228 44.444,371.074 42.950,356.881 42.744 L 349.541 42.638 355.229 42.923 M56.606 43.556 C 56.959 43.648,57.537 43.648,57.890 43.556 C 58.243 43.463,57.954 43.388,57.248 43.388 C 56.541 43.388,56.252 43.463,56.606 43.556 M342.298 43.562 C 342.754 43.650,343.415 43.647,343.766 43.555 C 344.117 43.463,343.743 43.391,342.936 43.395 C 342.128 43.399,341.841 43.475,342.298 43.562 M49.633 43.923 C 49.986 44.015,50.564 44.015,50.917 43.923 C 51.271 43.830,50.982 43.755,50.275 43.755 C 49.569 43.755,49.280 43.830,49.633 43.923 M350.738 43.929 C 351.195 44.017,351.855 44.014,352.206 43.922 C 352.557 43.830,352.183 43.758,351.376 43.762 C 350.569 43.766,350.282 43.841,350.738 43.929 M44.495 44.290 C 44.849 44.382,45.427 44.382,45.780 44.290 C 46.133 44.197,45.844 44.122,45.138 44.122 C 44.431 44.122,44.142 44.197,44.495 44.290 M356.610 44.296 C 357.066 44.384,357.727 44.381,358.078 44.289 C 358.429 44.197,358.055 44.125,357.248 44.129 C 356.440 44.133,356.153 44.208,356.610 44.296 M41.560 44.657 C 41.913 44.749,42.491 44.749,42.844 44.657 C 43.197 44.564,42.908 44.489,42.202 44.489 C 41.495 44.489,41.206 44.564,41.560 44.657 M37.011 45.621 C 32.099 47.295,28.120 52.077,28.280 56.112 C 28.293 56.434,28.670 55.602,29.118 54.263 C 30.762 49.350,33.276 47.044,38.716 45.463 C 39.927 45.111,40.587 44.815,40.183 44.806 C 39.780 44.797,38.352 45.164,37.011 45.621 M365.171 46.514 C 368.263 48.117,369.612 49.628,370.870 52.896 C 371.364 54.179,371.670 54.734,371.549 54.128 C 370.834 50.536,368.578 47.612,365.341 46.080 C 362.297 44.640,362.172 44.959,365.171 46.514 M27.932 57.414 C 27.909 57.808,27.356 58.716,26.704 59.432 L 25.519 60.734 26.924 59.407 C 27.873 58.511,28.272 57.856,28.152 57.389 C 27.984 56.732,27.973 56.733,27.932 57.414 M374.105 60.459 C 374.713 61.131,375.514 61.633,375.940 61.609 C 376.678 61.567,376.678 61.562,375.963 61.390 C 375.560 61.293,374.734 60.775,374.128 60.240 L 373.028 59.266 374.105 60.459 M378.790 62.360 C 383.943 64.008,386.241 66.450,387.961 72.110 C 388.445 73.705,388.571 73.915,388.415 72.874 C 387.530 66.946,382.125 61.508,377.282 61.671 C 376.960 61.682,377.639 61.992,378.790 62.360 M17.715 62.864 C 15.546 64.000,13.808 65.737,12.891 67.688 C 11.753 70.110,11.948 70.231,13.219 67.890 C 14.517 65.498,16.029 64.083,18.532 62.916 C 19.541 62.446,20.119 62.059,19.817 62.056 C 19.514 62.054,18.568 62.417,17.715 62.864 M381.651 66.170 C 381.651 66.233,382.188 66.770,382.844 67.363 L 384.037 68.440 382.959 67.248 C 381.954 66.136,381.651 65.886,381.651 66.170 M11.586 71.035 C 11.451 71.573,11.411 72.084,11.498 72.170 C 11.584 72.257,11.765 71.888,11.900 71.350 C 12.035 70.812,12.075 70.301,11.989 70.215 C 11.902 70.128,11.721 70.498,11.586 71.035 M10.727 76.697 C 10.727 77.404,10.803 77.693,10.895 77.339 C 10.987 76.986,10.987 76.408,10.895 76.055 C 10.803 75.702,10.727 75.991,10.727 76.697 M10.360 80.734 C 10.360 81.440,10.436 81.729,10.528 81.376 C 10.620 81.023,10.620 80.445,10.528 80.092 C 10.436 79.739,10.360 80.028,10.360 80.734 M8.951 87.706 C 8.951 90.431,9.009 91.546,9.079 90.183 C 9.150 88.821,9.150 86.592,9.079 85.229 C 9.009 83.867,8.951 84.982,8.951 87.706 M390.967 88.440 C 390.967 90.963,391.026 91.995,391.097 90.734 C 391.169 89.472,391.169 87.408,391.097 86.147 C 391.026 84.885,390.967 85.917,390.967 88.440 M391.252 94.312 C 391.224 94.615,391.303 95.482,391.428 96.239 L 391.656 97.615 395.828 97.615 L 400.000 97.615 400.000 96.697 L 400.000 95.780 395.804 95.780 L 391.608 95.780 391.456 94.771 C 391.371 94.216,391.280 94.009,391.252 94.312 M0.000 95.229 C 0.000 95.687,0.714 95.780,4.220 95.780 C 7.727 95.780,8.440 95.687,8.440 95.229 C 8.440 94.772,7.727 94.679,4.220 94.679 C 0.714 94.679,0.000 94.772,0.000 95.229 M174.385 141.358 C 173.679 142.065,173.778 208.740,174.488 209.676 C 174.985 210.333,175.135 210.338,178.054 209.779 C 179.730 209.459,182.369 209.029,183.920 208.825 L 186.738 208.455 189.278 205.950 C 191.131 204.123,191.884 203.097,192.059 202.159 C 193.012 197.082,196.810 194.646,205.428 193.583 C 207.589 193.317,211.788 192.804,214.758 192.443 L 220.157 191.788 222.577 189.349 C 224.887 187.022,225.022 186.787,225.545 184.189 C 226.251 180.686,227.551 178.006,229.319 176.409 L 230.727 175.137 227.565 174.384 C 225.826 173.969,223.330 173.519,222.018 173.384 C 213.973 172.555,210.433 170.420,208.963 165.510 C 208.425 163.716,207.894 162.925,205.899 160.947 L 203.486 158.555 199.501 157.996 C 197.309 157.689,194.901 157.272,194.149 157.070 C 193.397 156.867,191.358 156.453,189.618 156.150 C 181.428 154.722,179.112 152.628,177.609 145.295 C 176.597 140.356,176.042 140.761,176.872 145.833 C 178.117 153.437,180.442 155.646,188.297 156.690 C 189.990 156.916,192.780 157.343,194.495 157.640 C 196.211 157.938,198.151 158.267,198.807 158.373 C 199.752 158.525,200.253 158.962,201.228 160.486 C 202.574 162.592,205.411 165.282,207.188 166.138 C 207.904 166.483,208.491 167.153,208.780 167.954 C 210.037 171.427,212.953 172.955,219.519 173.578 C 221.802 173.795,224.868 174.228,226.332 174.540 L 228.994 175.109 227.720 176.597 C 226.559 177.954,225.753 179.805,225.165 182.469 C 225.014 183.154,224.338 183.860,223.023 184.705 C 220.770 186.152,218.228 188.815,217.359 190.639 C 217.021 191.347,216.532 191.927,216.272 191.927 C 214.753 191.927,199.955 193.484,198.611 193.785 C 195.076 194.577,192.519 196.579,192.051 198.920 C 191.902 199.662,191.383 200.250,190.323 200.873 C 188.326 202.047,185.523 204.846,184.366 206.820 C 183.535 208.238,183.260 208.427,181.719 208.641 C 180.774 208.772,178.927 209.093,177.615 209.355 C 175.986 209.680,175.084 209.712,174.771 209.457 C 173.938 208.781,174.119 141.800,174.954 141.314 C 175.307 141.108,175.423 140.935,175.211 140.929 C 174.999 140.922,174.628 141.116,174.385 141.358 M205.138 195.191 C 200.008 196.367,196.790 198.319,195.306 201.152 C 194.845 202.032,194.681 202.422,194.941 202.018 C 197.179 198.539,200.644 196.492,206.226 195.348 C 207.747 195.036,209.060 194.717,209.144 194.638 C 209.452 194.350,207.821 194.575,205.138 195.191 M0.000 264.954 L 0.000 266.789 4.220 266.789 L 8.440 266.789 8.440 268.685 C 8.440 269.728,8.539 270.482,8.660 270.361 C 8.781 270.241,8.761 268.562,8.616 266.631 L 8.353 263.119 4.177 263.119 L 0.000 263.119 0.000 264.954 M391.384 266.631 C 391.239 268.562,391.219 270.241,391.340 270.361 C 391.461 270.482,391.560 269.728,391.560 268.685 L 391.560 266.789 395.780 266.789 L 400.000 266.789 400.000 264.954 L 400.000 263.119 395.823 263.119 L 391.647 263.119 391.384 266.631 M8.912 273.211 C 8.915 274.220,8.986 274.589,9.071 274.032 C 9.155 273.474,9.153 272.648,9.066 272.197 C 8.979 271.745,8.910 272.202,8.912 273.211 M390.949 274.495 C 390.949 276.009,391.014 276.628,391.093 275.872 C 391.172 275.115,391.172 273.876,391.093 273.119 C 391.014 272.362,390.949 272.982,390.949 274.495 M9.365 280.550 C 9.842 295.853,13.635 303.051,22.387 305.260 C 23.900 305.642,25.737 306.311,26.469 306.748 C 27.517 307.374,31.795 308.583,33.081 308.617 C 33.211 308.621,33.822 309.408,34.439 310.367 C 35.767 312.433,38.144 314.789,40.183 316.060 C 40.991 316.563,42.147 317.648,42.752 318.471 C 46.645 323.764,49.636 323.993,117.431 324.185 L 167.523 324.327 123.119 324.042 C 49.664 323.570,45.789 323.136,42.389 314.999 C 42.090 314.282,40.704 312.566,39.310 311.186 L 36.776 308.676 33.370 308.089 C 29.806 307.474,27.124 306.489,25.876 305.338 C 25.470 304.963,24.265 304.400,23.198 304.087 C 18.151 302.607,14.995 299.726,13.396 295.141 C 12.850 293.575,12.103 291.716,11.735 291.009 C 10.861 289.329,9.990 284.846,9.561 279.817 L 9.216 275.780 9.365 280.550 M390.333 281.039 C 390.024 285.749,389.542 288.210,388.487 290.459 C 388.014 291.468,387.173 293.575,386.619 295.141 C 385.056 299.558,381.181 303.138,377.007 304.019 C 376.369 304.153,375.049 304.832,374.071 305.527 C 372.082 306.941,369.820 307.697,365.918 308.250 C 362.979 308.667,358.857 312.016,357.611 314.999 C 354.211 323.136,350.336 323.570,276.881 324.042 L 232.477 324.327 282.569 324.185 C 350.364 323.993,353.355 323.764,357.248 318.471 C 357.853 317.648,359.009 316.563,359.817 316.060 C 361.856 314.789,364.233 312.433,365.561 310.367 C 366.178 309.408,366.717 308.624,366.760 308.624 C 368.574 308.624,372.887 307.364,374.312 306.419 C 374.817 306.084,376.379 305.533,377.783 305.194 C 385.188 303.409,386.544 301.582,389.942 288.807 C 390.458 286.867,391.131 277.431,390.753 277.431 C 390.652 277.431,390.463 279.055,390.333 281.039 " stroke="none" fill="#181c24" fill-rule="evenodd"></path><path id="path2" d="M126.422 27.730 C 121.982 27.990,116.615 28.397,114.495 28.633 C 112.376 28.869,105.932 29.170,100.174 29.302 L 89.707 29.541 87.267 30.743 C 83.387 32.654,79.266 38.189,79.266 41.489 C 79.266 42.918,81.019 41.580,82.089 39.334 C 83.511 36.348,86.060 33.695,88.889 32.259 L 90.988 31.193 99.164 31.191 C 104.521 31.190,108.478 31.007,110.642 30.659 C 126.462 28.117,134.505 27.890,208.586 27.890 C 280.904 27.890,280.518 27.879,288.440 30.143 C 290.791 30.815,292.532 30.962,300.367 31.153 C 312.100 31.438,314.735 32.667,317.911 39.334 C 318.981 41.580,320.734 42.918,320.734 41.489 C 320.734 38.189,316.613 32.654,312.733 30.743 L 310.294 29.541 300.376 29.306 C 294.922 29.176,289.633 28.883,288.624 28.654 C 282.225 27.200,279.995 27.161,205.872 27.210 C 152.524 27.245,132.456 27.377,126.422 27.730 M76.789 42.088 C 77.142 42.180,77.720 42.180,78.073 42.088 C 78.427 41.996,78.138 41.920,77.431 41.920 C 76.725 41.920,76.436 41.996,76.789 42.088 M321.927 42.088 C 322.280 42.180,322.858 42.180,323.211 42.088 C 323.564 41.996,323.275 41.920,322.569 41.920 C 321.862 41.920,321.573 41.996,321.927 42.088 M58.257 42.476 C 61.537 42.537,66.904 42.537,70.183 42.476 C 73.463 42.416,70.780 42.366,64.220 42.366 C 57.661 42.366,54.977 42.416,58.257 42.476 M330.183 42.476 C 333.665 42.537,339.362 42.537,342.844 42.476 C 346.326 42.416,343.477 42.367,336.514 42.367 C 329.550 42.367,326.702 42.416,330.183 42.476 M37.297 42.971 C 28.679 43.880,26.109 47.031,26.062 56.744 C 26.052 58.797,25.657 59.020,21.249 59.460 C 10.805 60.502,9.019 63.230,9.246 77.789 C 9.286 80.317,9.365 81.229,9.423 79.817 C 10.063 64.154,11.738 61.454,21.650 60.104 C 25.931 59.521,26.295 59.216,26.801 55.780 C 28.326 45.423,30.983 43.685,46.422 42.947 L 51.927 42.684 46.055 42.675 C 42.826 42.670,38.884 42.804,37.297 42.971 M355.229 42.923 C 369.613 43.646,371.865 45.186,373.349 55.315 C 373.969 59.546,374.044 59.630,377.715 60.190 C 388.235 61.795,389.681 64.208,390.574 81.651 C 390.636 82.862,390.718 81.824,390.756 79.343 C 391.003 63.321,388.304 59.513,376.662 59.457 C 374.443 59.446,374.081 58.813,373.825 54.495 C 373.228 44.444,371.074 42.950,356.881 42.744 L 349.541 42.638 355.229 42.923 M56.606 43.556 C 56.959 43.648,57.537 43.648,57.890 43.556 C 58.243 43.463,57.954 43.388,57.248 43.388 C 56.541 43.388,56.252 43.463,56.606 43.556 M342.298 43.562 C 342.754 43.650,343.415 43.647,343.766 43.555 C 344.117 43.463,343.743 43.391,342.936 43.395 C 342.128 43.399,341.841 43.475,342.298 43.562 M49.633 43.923 C 49.986 44.015,50.564 44.015,50.917 43.923 C 51.271 43.830,50.982 43.755,50.275 43.755 C 49.569 43.755,49.280 43.830,49.633 43.923 M350.738 43.929 C 351.195 44.017,351.855 44.014,352.206 43.922 C 352.557 43.830,352.183 43.758,351.376 43.762 C 350.569 43.766,350.282 43.841,350.738 43.929 M44.495 44.290 C 44.849 44.382,45.427 44.382,45.780 44.290 C 46.133 44.197,45.844 44.122,45.138 44.122 C 44.431 44.122,44.142 44.197,44.495 44.290 M356.610 44.296 C 357.066 44.384,357.727 44.381,358.078 44.289 C 358.429 44.197,358.055 44.125,357.248 44.129 C 356.440 44.133,356.153 44.208,356.610 44.296 M41.560 44.657 C 41.913 44.749,42.491 44.749,42.844 44.657 C 43.197 44.564,42.908 44.489,42.202 44.489 C 41.495 44.489,41.206 44.564,41.560 44.657 M37.011 45.621 C 32.099 47.295,28.120 52.077,28.280 56.112 C 28.293 56.434,28.670 55.602,29.118 54.263 C 30.762 49.350,33.276 47.044,38.716 45.463 C 39.927 45.111,40.587 44.815,40.183 44.806 C 39.780 44.797,38.352 45.164,37.011 45.621 M365.171 46.514 C 368.263 48.117,369.612 49.628,370.870 52.896 C 371.364 54.179,371.670 54.734,371.549 54.128 C 370.834 50.536,368.578 47.612,365.341 46.080 C 362.297 44.640,362.172 44.959,365.171 46.514 M27.932 57.414 C 27.909 57.808,27.356 58.716,26.704 59.432 L 25.519 60.734 26.924 59.407 C 27.873 58.511,28.272 57.856,28.152 57.389 C 27.984 56.732,27.973 56.733,27.932 57.414 M374.105 60.459 C 374.713 61.131,375.514 61.633,375.940 61.609 C 376.678 61.567,376.678 61.562,375.963 61.390 C 375.560 61.293,374.734 60.775,374.128 60.240 L 373.028 59.266 374.105 60.459 M378.790 62.360 C 383.943 64.008,386.241 66.450,387.961 72.110 C 388.445 73.705,388.571 73.915,388.415 72.874 C 387.530 66.946,382.125 61.508,377.282 61.671 C 376.960 61.682,377.639 61.992,378.790 62.360 M17.715 62.864 C 15.546 64.000,13.808 65.737,12.891 67.688 C 11.753 70.110,11.948 70.231,13.219 67.890 C 14.517 65.498,16.029 64.083,18.532 62.916 C 19.541 62.446,20.119 62.059,19.817 62.056 C 19.514 62.054,18.568 62.417,17.715 62.864 M381.651 66.170 C 381.651 66.233,382.188 66.770,382.844 67.363 L 384.037 68.440 382.959 67.248 C 381.954 66.136,381.651 65.886,381.651 66.170 M11.586 71.035 C 11.451 71.573,11.411 72.084,11.498 72.170 C 11.584 72.257,11.765 71.888,11.900 71.350 C 12.035 70.812,12.075 70.301,11.989 70.215 C 11.902 70.128,11.721 70.498,11.586 71.035 M10.727 76.697 C 10.727 77.404,10.803 77.693,10.895 77.339 C 10.987 76.986,10.987 76.408,10.895 76.055 C 10.803 75.702,10.727 75.991,10.727 76.697 M10.360 80.734 C 10.360 81.440,10.436 81.729,10.528 81.376 C 10.620 81.023,10.620 80.445,10.528 80.092 C 10.436 79.739,10.360 80.028,10.360 80.734 M8.951 87.706 C 8.951 90.431,9.009 91.546,9.079 90.183 C 9.150 88.821,9.150 86.592,9.079 85.229 C 9.009 83.867,8.951 84.982,8.951 87.706 M390.967 88.440 C 390.967 90.963,391.026 91.995,391.097 90.734 C 391.169 89.472,391.169 87.408,391.097 86.147 C 391.026 84.885,390.967 85.917,390.967 88.440 M391.252 94.312 C 391.224 94.615,391.303 95.482,391.428 96.239 L 391.656 97.615 395.828 97.615 L 400.000 97.615 400.000 96.697 L 400.000 95.780 395.804 95.780 L 391.608 95.780 391.456 94.771 C 391.371 94.216,391.280 94.009,391.252 94.312 M0.000 95.229 C 0.000 95.687,0.714 95.780,4.220 95.780 C 7.727 95.780,8.440 95.687,8.440 95.229 C 8.440 94.772,7.727 94.679,4.220 94.679 C 0.714 94.679,0.000 94.772,0.000 95.229 M174.385 141.358 C 173.679 142.065,173.778 208.740,174.488 209.676 C 174.985 210.333,175.135 210.338,178.054 209.779 C 179.730 209.459,182.369 209.029,183.920 208.825 L 186.738 208.455 189.278 205.950 C 191.131 204.123,191.884 203.097,192.059 202.159 C 193.012 197.082,196.810 194.646,205.428 193.583 C 207.589 193.317,211.788 192.804,214.758 192.443 L 220.157 191.788 222.577 189.349 C 224.887 187.022,225.022 186.787,225.545 184.189 C 226.251 180.686,227.551 178.006,229.319 176.409 L 230.727 175.137 227.565 174.384 C 225.826 173.969,223.330 173.519,222.018 173.384 C 213.973 172.555,210.433 170.420,208.963 165.510 C 208.425 163.716,207.894 162.925,205.899 160.947 L 203.486 158.555 199.501 157.996 C 197.309 157.689,194.901 157.272,194.149 157.070 C 193.397 156.867,191.358 156.453,189.618 156.150 C 181.428 154.722,179.112 152.628,177.609 145.295 C 176.597 140.356,176.042 140.761,176.872 145.833 C 178.117 153.437,180.442 155.646,188.297 156.690 C 189.990 156.916,192.780 157.343,194.495 157.640 C 196.211 157.938,198.151 158.267,198.807 158.373 C 199.752 158.525,200.253 158.962,201.228 160.486 C 202.574 162.592,205.411 165.282,207.188 166.138 C 207.904 166.483,208.491 167.153,208.780 167.954 C 210.037 171.427,212.953 172.955,219.519 173.578 C 221.802 173.795,224.868 174.228,226.332 174.540 L 228.994 175.109 227.720 176.597 C 226.559 177.954,225.753 179.805,225.165 182.469 C 225.014 183.154,224.338 183.860,223.023 184.705 C 220.770 186.152,218.228 188.815,217.359 190.639 C 217.021 191.347,216.532 191.927,216.272 191.927 C 214.753 191.927,199.955 193.484,198.611 193.785 C 195.076 194.577,192.519 196.579,192.051 198.920 C 191.902 199.662,191.383 200.250,190.323 200.873 C 188.326 202.047,185.523 204.846,184.366 206.820 C 183.535 208.238,183.260 208.427,181.719 208.641 C 180.774 208.772,178.927 209.093,177.615 209.355 C 175.986 209.680,175.084 209.712,174.771 209.457 C 173.938 208.781,174.119 141.800,174.954 141.314 C 175.307 141.108,175.423 140.935,175.211 140.929 C 174.999 140.922,174.628 141.116,174.385 141.358 M205.138 195.191 C 200.008 196.367,196.790 198.319,195.306 201.152 C 194.845 202.032,194.681 202.422,194.941 202.018 C 197.179 198.539,200.644 196.492,206.226 195.348 C 207.747 195.036,209.060 194.717,209.144 194.638 C 209.452 194.350,207.821 194.575,205.138 195.191 M0.000 264.954 L 0.000 266.789 4.220 266.789 L 8.440 266.789 8.440 268.685 C 8.440 269.728,8.539 270.482,8.660 270.361 C 8.781 270.241,8.761 268.562,8.616 266.631 L 8.353 263.119 4.177 263.119 L 0.000 263.119 0.000 264.954 M391.384 266.631 C 391.239 268.562,391.219 270.241,391.340 270.361 C 391.461 270.482,391.560 269.728,391.560 268.685 L 391.560 266.789 395.780 266.789 L 400.000 266.789 400.000 264.954 L 400.000 263.119 395.823 263.119 L 391.647 263.119 391.384 266.631 M8.912 273.211 C 8.915 274.220,8.986 274.589,9.071 274.032 C 9.155 273.474,9.153 272.648,9.066 272.197 C 8.979 271.745,8.910 272.202,8.912 273.211 M390.949 274.495 C 390.949 276.009,391.014 276.628,391.093 275.872 C 391.172 275.115,391.172 273.876,391.093 273.119 C 391.014 272.362,390.949 272.982,390.949 274.495 M9.365 280.550 C 9.842 295.853,13.635 303.051,22.387 305.260 C 23.900 305.642,25.737 306.311,26.469 306.748 C 27.517 307.374,31.795 308.583,33.081 308.617 C 33.211 308.621,33.822 309.408,34.439 310.367 C 35.767 312.433,38.144 314.789,40.183 316.060 C 40.991 316.563,42.147 317.648,42.752 318.471 C 46.645 323.764,49.636 323.993,117.431 324.185 L 167.523 324.327 123.119 324.042 C 49.664 323.570,45.789 323.136,42.389 314.999 C 42.090 314.282,40.704 312.566,39.310 311.186 L 36.776 308.676 33.370 308.089 C 29.806 307.474,27.124 306.489,25.876 305.338 C 25.470 304.963,24.265 304.400,23.198 304.087 C 18.151 302.607,14.995 299.726,13.396 295.141 C 12.850 293.575,12.103 291.716,11.735 291.009 C 10.861 289.329,9.990 284.846,9.561 279.817 L 9.216 275.780 9.365 280.550 M390.333 281.039 C 390.024 285.749,389.542 288.210,388.487 290.459 C 388.014 291.468,387.173 293.575,386.619 295.141 C 385.056 299.558,381.181 303.138,377.007 304.019 C 376.369 304.153,375.049 304.832,374.071 305.527 C 372.082 306.941,369.820 307.697,365.918 308.250 C 362.979 308.667,358.857 312.016,357.611 314.999 C 354.211 323.136,350.336 323.570,276.881 324.042 L 232.477 324.327 282.569 324.185 C 350.364 323.993,353.355 323.764,357.248 318.471 C 357.853 317.648,359.009 316.563,359.817 316.060 C 361.856 314.789,364.233 312.433,365.561 310.367 C 366.178 309.408,366.717 308.624,366.760 308.624 C 368.574 308.624,372.887 307.364,374.312 306.419 C 374.817 306.084,376.379 305.533,377.783 305.194 C 385.188 303.409,386.544 301.582,389.942 288.807 C 390.458 286.867,391.131 277.431,390.753 277.431 C 390.652 277.431,390.463 279.055,390.333 281.039 " stroke="none" fill="#181c24" fill-rule="evenodd"></path><path id="path3" d="M126.422 27.730 C 121.982 27.990,116.615 28.397,114.495 28.633 C 112.376 28.869,105.932 29.170,100.174 29.302 L 89.707 29.541 87.267 30.743 C 83.387 32.654,79.266 38.189,79.266 41.489 C 79.266 42.918,81.019 41.580,82.089 39.334 C 83.511 36.348,86.060 33.695,88.889 32.259 L 90.988 31.193 99.164 31.191 C 104.521 31.190,108.478 31.007,110.642 30.659 C 126.462 28.117,134.505 27.890,208.586 27.890 C 280.904 27.890,280.518 27.879,288.440 30.143 C 290.791 30.815,292.532 30.962,300.367 31.153 C 312.100 31.438,314.735 32.667,317.911 39.334 C 318.981 41.580,320.734 42.918,320.734 41.489 C 320.734 38.189,316.613 32.654,312.733 30.743 L 310.294 29.541 300.376 29.306 C 294.922 29.176,289.633 28.883,288.624 28.654 C 282.225 27.200,279.995 27.161,205.872 27.210 C 152.524 27.245,132.456 27.377,126.422 27.730 M76.789 42.088 C 77.142 42.180,77.720 42.180,78.073 42.088 C 78.427 41.996,78.138 41.920,77.431 41.920 C 76.725 41.920,76.436 41.996,76.789 42.088 M321.927 42.088 C 322.280 42.180,322.858 42.180,323.211 42.088 C 323.564 41.996,323.275 41.920,322.569 41.920 C 321.862 41.920,321.573 41.996,321.927 42.088 M58.257 42.476 C 61.537 42.537,66.904 42.537,70.183 42.476 C 73.463 42.416,70.780 42.366,64.220 42.366 C 57.661 42.366,54.977 42.416,58.257 42.476 M330.183 42.476 C 333.665 42.537,339.362 42.537,342.844 42.476 C 346.326 42.416,343.477 42.367,336.514 42.367 C 329.550 42.367,326.702 42.416,330.183 42.476 M37.297 42.971 C 28.679 43.880,26.109 47.031,26.062 56.744 C 26.052 58.797,25.657 59.020,21.249 59.460 C 10.805 60.502,9.019 63.230,9.246 77.789 C 9.286 80.317,9.365 81.229,9.423 79.817 C 10.063 64.154,11.738 61.454,21.650 60.104 C 25.931 59.521,26.295 59.216,26.801 55.780 C 28.326 45.423,30.983 43.685,46.422 42.947 L 51.927 42.684 46.055 42.675 C 42.826 42.670,38.884 42.804,37.297 42.971 M355.229 42.923 C 369.613 43.646,371.865 45.186,373.349 55.315 C 373.969 59.546,374.044 59.630,377.715 60.190 C 388.235 61.795,389.681 64.208,390.574 81.651 C 390.636 82.862,390.718 81.824,390.756 79.343 C 391.003 63.321,388.304 59.513,376.662 59.457 C 374.443 59.446,374.081 58.813,373.825 54.495 C 373.228 44.444,371.074 42.950,356.881 42.744 L 349.541 42.638 355.229 42.923 M56.606 43.556 C 56.959 43.648,57.537 43.648,57.890 43.556 C 58.243 43.463,57.954 43.388,57.248 43.388 C 56.541 43.388,56.252 43.463,56.606 43.556 M342.298 43.562 C 342.754 43.650,343.415 43.647,343.766 43.555 C 344.117 43.463,343.743 43.391,342.936 43.395 C 342.128 43.399,341.841 43.475,342.298 43.562 M49.633 43.923 C 49.986 44.015,50.564 44.015,50.917 43.923 C 51.271 43.830,50.982 43.755,50.275 43.755 C 49.569 43.755,49.280 43.830,49.633 43.923 M350.738 43.929 C 351.195 44.017,351.855 44.014,352.206 43.922 C 352.557 43.830,352.183 43.758,351.376 43.762 C 350.569 43.766,350.282 43.841,350.738 43.929 M44.495 44.290 C 44.849 44.382,45.427 44.382,45.780 44.290 C 46.133 44.197,45.844 44.122,45.138 44.122 C 44.431 44.122,44.142 44.197,44.495 44.290 M356.610 44.296 C 357.066 44.384,357.727 44.381,358.078 44.289 C 358.429 44.197,358.055 44.125,357.248 44.129 C 356.440 44.133,356.153 44.208,356.610 44.296 M41.560 44.657 C 41.913 44.749,42.491 44.749,42.844 44.657 C 43.197 44.564,42.908 44.489,42.202 44.489 C 41.495 44.489,41.206 44.564,41.560 44.657 M37.011 45.621 C 32.099 47.295,28.120 52.077,28.280 56.112 C 28.293 56.434,28.670 55.602,29.118 54.263 C 30.762 49.350,33.276 47.044,38.716 45.463 C 39.927 45.111,40.587 44.815,40.183 44.806 C 39.780 44.797,38.352 45.164,37.011 45.621 M365.171 46.514 C 368.263 48.117,369.612 49.628,370.870 52.896 C 371.364 54.179,371.670 54.734,371.549 54.128 C 370.834 50.536,368.578 47.612,365.341 46.080 C 362.297 44.640,362.172 44.959,365.171 46.514 M27.932 57.414 C 27.909 57.808,27.356 58.716,26.704 59.432 L 25.519 60.734 26.924 59.407 C 27.873 58.511,28.272 57.856,28.152 57.389 C 27.984 56.732,27.973 56.733,27.932 57.414 M374.105 60.459 C 374.713 61.131,375.514 61.633,375.940 61.609 C 376.678 61.567,376.678 61.562,375.963 61.390 C 375.560 61.293,374.734 60.775,374.128 60.240 L 373.028 59.266 374.105 60.459 M378.790 62.360 C 383.943 64.008,386.241 66.450,387.961 72.110 C 388.445 73.705,388.571 73.915,388.415 72.874 C 387.530 66.946,382.125 61.508,377.282 61.671 C 376.960 61.682,377.639 61.992,378.790 62.360 M17.715 62.864 C 15.546 64.000,13.808 65.737,12.891 67.688 C 11.753 70.110,11.948 70.231,13.219 67.890 C 14.517 65.498,16.029 64.083,18.532 62.916 C 19.541 62.446,20.119 62.059,19.817 62.056 C 19.514 62.054,18.568 62.417,17.715 62.864 M381.651 66.170 C 381.651 66.233,382.188 66.770,382.844 67.363 L 384.037 68.440 382.959 67.248 C 381.954 66.136,381.651 65.886,381.651 66.170 M11.586 71.035 C 11.451 71.573,11.411 72.084,11.498 72.170 C 11.584 72.257,11.765 71.888,11.900 71.350 C 12.035 70.812,12.075 70.301,11.989 70.215 C 11.902 70.128,11.721 70.498,11.586 71.035 M10.727 76.697 C 10.727 77.404,10.803 77.693,10.895 77.339 C 10.987 76.986,10.987 76.408,10.895 76.055 C 10.803 75.702,10.727 75.991,10.727 76.697 M10.360 80.734 C 10.360 81.440,10.436 81.729,10.528 81.376 C 10.620 81.023,10.620 80.445,10.528 80.092 C 10.436 79.739,10.360 80.028,10.360 80.734 M8.951 87.706 C 8.951 90.431,9.009 91.546,9.079 90.183 C 9.150 88.821,9.150 86.592,9.079 85.229 C 9.009 83.867,8.951 84.982,8.951 87.706 M390.967 88.440 C 390.967 90.963,391.026 91.995,391.097 90.734 C 391.169 89.472,391.169 87.408,391.097 86.147 C 391.026 84.885,390.967 85.917,390.967 88.440 M391.252 94.312 C 391.224 94.615,391.303 95.482,391.428 96.239 L 391.656 97.615 395.828 97.615 L 400.000 97.615 400.000 96.697 L 400.000 95.780 395.804 95.780 L 391.608 95.780 391.456 94.771 C 391.371 94.216,391.280 94.009,391.252 94.312 M0.000 95.229 C 0.000 95.687,0.714 95.780,4.220 95.780 C 7.727 95.780,8.440 95.687,8.440 95.229 C 8.440 94.772,7.727 94.679,4.220 94.679 C 0.714 94.679,0.000 94.772,0.000 95.229 M174.385 141.358 C 173.679 142.065,173.778 208.740,174.488 209.676 C 174.985 210.333,175.135 210.338,178.054 209.779 C 179.730 209.459,182.369 209.029,183.920 208.825 L 186.738 208.455 189.278 205.950 C 191.131 204.123,191.884 203.097,192.059 202.159 C 193.012 197.082,196.810 194.646,205.428 193.583 C 207.589 193.317,211.788 192.804,214.758 192.443 L 220.157 191.788 222.577 189.349 C 224.887 187.022,225.022 186.787,225.545 184.189 C 226.251 180.686,227.551 178.006,229.319 176.409 L 230.727 175.137 227.565 174.384 C 225.826 173.969,223.330 173.519,222.018 173.384 C 213.973 172.555,210.433 170.420,208.963 165.510 C 208.425 163.716,207.894 162.925,205.899 160.947 L 203.486 158.555 199.501 157.996 C 197.309 157.689,194.901 157.272,194.149 157.070 C 193.397 156.867,191.358 156.453,189.618 156.150 C 181.428 154.722,179.112 152.628,177.609 145.295 C 176.597 140.356,176.042 140.761,176.872 145.833 C 178.117 153.437,180.442 155.646,188.297 156.690 C 189.990 156.916,192.780 157.343,194.495 157.640 C 196.211 157.938,198.151 158.267,198.807 158.373 C 199.752 158.525,200.253 158.962,201.228 160.486 C 202.574 162.592,205.411 165.282,207.188 166.138 C 207.904 166.483,208.491 167.153,208.780 167.954 C 210.037 171.427,212.953 172.955,219.519 173.578 C 221.802 173.795,224.868 174.228,226.332 174.540 L 228.994 175.109 227.720 176.597 C 226.559 177.954,225.753 179.805,225.165 182.469 C 225.014 183.154,224.338 183.860,223.023 184.705 C 220.770 186.152,218.228 188.815,217.359 190.639 C 217.021 191.347,216.532 191.927,216.272 191.927 C 214.753 191.927,199.955 193.484,198.611 193.785 C 195.076 194.577,192.519 196.579,192.051 198.920 C 191.902 199.662,191.383 200.250,190.323 200.873 C 188.326 202.047,185.523 204.846,184.366 206.820 C 183.535 208.238,183.260 208.427,181.719 208.641 C 180.774 208.772,178.927 209.093,177.615 209.355 C 175.986 209.680,175.084 209.712,174.771 209.457 C 173.938 208.781,174.119 141.800,174.954 141.314 C 175.307 141.108,175.423 140.935,175.211 140.929 C 174.999 140.922,174.628 141.116,174.385 141.358 M205.138 195.191 C 200.008 196.367,196.790 198.319,195.306 201.152 C 194.845 202.032,194.681 202.422,194.941 202.018 C 197.179 198.539,200.644 196.492,206.226 195.348 C 207.747 195.036,209.060 194.717,209.144 194.638 C 209.452 194.350,207.821 194.575,205.138 195.191 M0.000 264.954 L 0.000 266.789 4.220 266.789 L 8.440 266.789 8.440 268.685 C 8.440 269.728,8.539 270.482,8.660 270.361 C 8.781 270.241,8.761 268.562,8.616 266.631 L 8.353 263.119 4.177 263.119 L 0.000 263.119 0.000 264.954 M391.384 266.631 C 391.239 268.562,391.219 270.241,391.340 270.361 C 391.461 270.482,391.560 269.728,391.560 268.685 L 391.560 266.789 395.780 266.789 L 400.000 266.789 400.000 264.954 L 400.000 263.119 395.823 263.119 L 391.647 263.119 391.384 266.631 M8.912 273.211 C 8.915 274.220,8.986 274.589,9.071 274.032 C 9.155 273.474,9.153 272.648,9.066 272.197 C 8.979 271.745,8.910 272.202,8.912 273.211 M390.949 274.495 C 390.949 276.009,391.014 276.628,391.093 275.872 C 391.172 275.115,391.172 273.876,391.093 273.119 C 391.014 272.362,390.949 272.982,390.949 274.495 M9.365 280.550 C 9.842 295.853,13.635 303.051,22.387 305.260 C 23.900 305.642,25.737 306.311,26.469 306.748 C 27.517 307.374,31.795 308.583,33.081 308.617 C 33.211 308.621,33.822 309.408,34.439 310.367 C 35.767 312.433,38.144 314.789,40.183 316.060 C 40.991 316.563,42.147 317.648,42.752 318.471 C 46.645 323.764,49.636 323.993,117.431 324.185 L 167.523 324.327 123.119 324.042 C 49.664 323.570,45.789 323.136,42.389 314.999 C 42.090 314.282,40.704 312.566,39.310 311.186 L 36.776 308.676 33.370 308.089 C 29.806 307.474,27.124 306.489,25.876 305.338 C 25.470 304.963,24.265 304.400,23.198 304.087 C 18.151 302.607,14.995 299.726,13.396 295.141 C 12.850 293.575,12.103 291.716,11.735 291.009 C 10.861 289.329,9.990 284.846,9.561 279.817 L 9.216 275.780 9.365 280.550 M390.333 281.039 C 390.024 285.749,389.542 288.210,388.487 290.459 C 388.014 291.468,387.173 293.575,386.619 295.141 C 385.056 299.558,381.181 303.138,377.007 304.019 C 376.369 304.153,375.049 304.832,374.071 305.527 C 372.082 306.941,369.820 307.697,365.918 308.250 C 362.979 308.667,358.857 312.016,357.611 314.999 C 354.211 323.136,350.336 323.570,276.881 324.042 L 232.477 324.327 282.569 324.185 C 350.364 323.993,353.355 323.764,357.248 318.471 C 357.853 317.648,359.009 316.563,359.817 316.060 C 361.856 314.789,364.233 312.433,365.561 310.367 C 366.178 309.408,366.717 308.624,366.760 308.624 C 368.574 308.624,372.887 307.364,374.312 306.419 C 374.817 306.084,376.379 305.533,377.783 305.194 C 385.188 303.409,386.544 301.582,389.942 288.807 C 390.458 286.867,391.131 277.431,390.753 277.431 C 390.652 277.431,390.463 279.055,390.333 281.039 " stroke="none" fill="#181c24" fill-rule="evenodd"></path><path id="path4" d="M126.422 27.730 C 121.982 27.990,116.615 28.397,114.495 28.633 C 112.376 28.869,105.932 29.170,100.174 29.302 L 89.707 29.541 87.267 30.743 C 83.387 32.654,79.266 38.189,79.266 41.489 C 79.266 42.918,81.019 41.580,82.089 39.334 C 83.511 36.348,86.060 33.695,88.889 32.259 L 90.988 31.193 99.164 31.191 C 104.521 31.190,108.478 31.007,110.642 30.659 C 126.462 28.117,134.505 27.890,208.586 27.890 C 280.904 27.890,280.518 27.879,288.440 30.143 C 290.791 30.815,292.532 30.962,300.367 31.153 C 312.100 31.438,314.735 32.667,317.911 39.334 C 318.981 41.580,320.734 42.918,320.734 41.489 C 320.734 38.189,316.613 32.654,312.733 30.743 L 310.294 29.541 300.376 29.306 C 294.922 29.176,289.633 28.883,288.624 28.654 C 282.225 27.200,279.995 27.161,205.872 27.210 C 152.524 27.245,132.456 27.377,126.422 27.730 M76.789 42.088 C 77.142 42.180,77.720 42.180,78.073 42.088 C 78.427 41.996,78.138 41.920,77.431 41.920 C 76.725 41.920,76.436 41.996,76.789 42.088 M321.927 42.088 C 322.280 42.180,322.858 42.180,323.211 42.088 C 323.564 41.996,323.275 41.920,322.569 41.920 C 321.862 41.920,321.573 41.996,321.927 42.088 M58.257 42.476 C 61.537 42.537,66.904 42.537,70.183 42.476 C 73.463 42.416,70.780 42.366,64.220 42.366 C 57.661 42.366,54.977 42.416,58.257 42.476 M330.183 42.476 C 333.665 42.537,339.362 42.537,342.844 42.476 C 346.326 42.416,343.477 42.367,336.514 42.367 C 329.550 42.367,326.702 42.416,330.183 42.476 M37.297 42.971 C 28.679 43.880,26.109 47.031,26.062 56.744 C 26.052 58.797,25.657 59.020,21.249 59.460 C 10.805 60.502,9.019 63.230,9.246 77.789 C 9.286 80.317,9.365 81.229,9.423 79.817 C 10.063 64.154,11.738 61.454,21.650 60.104 C 25.931 59.521,26.295 59.216,26.801 55.780 C 28.326 45.423,30.983 43.685,46.422 42.947 L 51.927 42.684 46.055 42.675 C 42.826 42.670,38.884 42.804,37.297 42.971 M355.229 42.923 C 369.613 43.646,371.865 45.186,373.349 55.315 C 373.969 59.546,374.044 59.630,377.715 60.190 C 388.235 61.795,389.681 64.208,390.574 81.651 C 390.636 82.862,390.718 81.824,390.756 79.343 C 391.003 63.321,388.304 59.513,376.662 59.457 C 374.443 59.446,374.081 58.813,373.825 54.495 C 373.228 44.444,371.074 42.950,356.881 42.744 L 349.541 42.638 355.229 42.923 M56.606 43.556 C 56.959 43.648,57.537 43.648,57.890 43.556 C 58.243 43.463,57.954 43.388,57.248 43.388 C 56.541 43.388,56.252 43.463,56.606 43.556 M342.298 43.562 C 342.754 43.650,343.415 43.647,343.766 43.555 C 344.117 43.463,343.743 43.391,342.936 43.395 C 342.128 43.399,341.841 43.475,342.298 43.562 M49.633 43.923 C 49.986 44.015,50.564 44.015,50.917 43.923 C 51.271 43.830,50.982 43.755,50.275 43.755 C 49.569 43.755,49.280 43.830,49.633 43.923 M350.738 43.929 C 351.195 44.017,351.855 44.014,352.206 43.922 C 352.557 43.830,352.183 43.758,351.376 43.762 C 350.569 43.766,350.282 43.841,350.738 43.929 M44.495 44.290 C 44.849 44.382,45.427 44.382,45.780 44.290 C 46.133 44.197,45.844 44.122,45.138 44.122 C 44.431 44.122,44.142 44.197,44.495 44.290 M356.610 44.296 C 357.066 44.384,357.727 44.381,358.078 44.289 C 358.429 44.197,358.055 44.125,357.248 44.129 C 356.440 44.133,356.153 44.208,356.610 44.296 M41.560 44.657 C 41.913 44.749,42.491 44.749,42.844 44.657 C 43.197 44.564,42.908 44.489,42.202 44.489 C 41.495 44.489,41.206 44.564,41.560 44.657 M37.011 45.621 C 32.099 47.295,28.120 52.077,28.280 56.112 C 28.293 56.434,28.670 55.602,29.118 54.263 C 30.762 49.350,33.276 47.044,38.716 45.463 C 39.927 45.111,40.587 44.815,40.183 44.806 C 39.780 44.797,38.352 45.164,37.011 45.621 M365.171 46.514 C 368.263 48.117,369.612 49.628,370.870 52.896 C 371.364 54.179,371.670 54.734,371.549 54.128 C 370.834 50.536,368.578 47.612,365.341 46.080 C 362.297 44.640,362.172 44.959,365.171 46.514 M27.932 57.414 C 27.909 57.808,27.356 58.716,26.704 59.432 L 25.519 60.734 26.924 59.407 C 27.873 58.511,28.272 57.856,28.152 57.389 C 27.984 56.732,27.973 56.733,27.932 57.414 M374.105 60.459 C 374.713 61.131,375.514 61.633,375.940 61.609 C 376.678 61.567,376.678 61.562,375.963 61.390 C 375.560 61.293,374.734 60.775,374.128 60.240 L 373.028 59.266 374.105 60.459 M378.790 62.360 C 383.943 64.008,386.241 66.450,387.961 72.110 C 388.445 73.705,388.571 73.915,388.415 72.874 C 387.530 66.946,382.125 61.508,377.282 61.671 C 376.960 61.682,377.639 61.992,378.790 62.360 M17.715 62.864 C 15.546 64.000,13.808 65.737,12.891 67.688 C 11.753 70.110,11.948 70.231,13.219 67.890 C 14.517 65.498,16.029 64.083,18.532 62.916 C 19.541 62.446,20.119 62.059,19.817 62.056 C 19.514 62.054,18.568 62.417,17.715 62.864 M381.651 66.170 C 381.651 66.233,382.188 66.770,382.844 67.363 L 384.037 68.440 382.959 67.248 C 381.954 66.136,381.651 65.886,381.651 66.170 M11.586 71.035 C 11.451 71.573,11.411 72.084,11.498 72.170 C 11.584 72.257,11.765 71.888,11.900 71.350 C 12.035 70.812,12.075 70.301,11.989 70.215 C 11.902 70.128,11.721 70.498,11.586 71.035 M10.727 76.697 C 10.727 77.404,10.803 77.693,10.895 77.339 C 10.987 76.986,10.987 76.408,10.895 76.055 C 10.803 75.702,10.727 75.991,10.727 76.697 M10.360 80.734 C 10.360 81.440,10.436 81.729,10.528 81.376 C 10.620 81.023,10.620 80.445,10.528 80.092 C 10.436 79.739,10.360 80.028,10.360 80.734 M8.951 87.706 C 8.951 90.431,9.009 91.546,9.079 90.183 C 9.150 88.821,9.150 86.592,9.079 85.229 C 9.009 83.867,8.951 84.982,8.951 87.706 M390.967 88.440 C 390.967 90.963,391.026 91.995,391.097 90.734 C 391.169 89.472,391.169 87.408,391.097 86.147 C 391.026 84.885,390.967 85.917,390.967 88.440 M391.252 94.312 C 391.224 94.615,391.303 95.482,391.428 96.239 L 391.656 97.615 395.828 97.615 L 400.000 97.615 400.000 96.697 L 400.000 95.780 395.804 95.780 L 391.608 95.780 391.456 94.771 C 391.371 94.216,391.280 94.009,391.252 94.312 M0.000 95.229 C 0.000 95.687,0.714 95.780,4.220 95.780 C 7.727 95.780,8.440 95.687,8.440 95.229 C 8.440 94.772,7.727 94.679,4.220 94.679 C 0.714 94.679,0.000 94.772,0.000 95.229 M174.385 141.358 C 173.679 142.065,173.778 208.740,174.488 209.676 C 174.985 210.333,175.135 210.338,178.054 209.779 C 179.730 209.459,182.369 209.029,183.920 208.825 L 186.738 208.455 189.278 205.950 C 191.131 204.123,191.884 203.097,192.059 202.159 C 193.012 197.082,196.810 194.646,205.428 193.583 C 207.589 193.317,211.788 192.804,214.758 192.443 L 220.157 191.788 222.577 189.349 C 224.887 187.022,225.022 186.787,225.545 184.189 C 226.251 180.686,227.551 178.006,229.319 176.409 L 230.727 175.137 227.565 174.384 C 225.826 173.969,223.330 173.519,222.018 173.384 C 213.973 172.555,210.433 170.420,208.963 165.510 C 208.425 163.716,207.894 162.925,205.899 160.947 L 203.486 158.555 199.501 157.996 C 197.309 157.689,194.901 157.272,194.149 157.070 C 193.397 156.867,191.358 156.453,189.618 156.150 C 181.428 154.722,179.112 152.628,177.609 145.295 C 176.597 140.356,176.042 140.761,176.872 145.833 C 178.117 153.437,180.442 155.646,188.297 156.690 C 189.990 156.916,192.780 157.343,194.495 157.640 C 196.211 157.938,198.151 158.267,198.807 158.373 C 199.752 158.525,200.253 158.962,201.228 160.486 C 202.574 162.592,205.411 165.282,207.188 166.138 C 207.904 166.483,208.491 167.153,208.780 167.954 C 210.037 171.427,212.953 172.955,219.519 173.578 C 221.802 173.795,224.868 174.228,226.332 174.540 L 228.994 175.109 227.720 176.597 C 226.559 177.954,225.753 179.805,225.165 182.469 C 225.014 183.154,224.338 183.860,223.023 184.705 C 220.770 186.152,218.228 188.815,217.359 190.639 C 217.021 191.347,216.532 191.927,216.272 191.927 C 214.753 191.927,199.955 193.484,198.611 193.785 C 195.076 194.577,192.519 196.579,192.051 198.920 C 191.902 199.662,191.383 200.250,190.323 200.873 C 188.326 202.047,185.523 204.846,184.366 206.820 C 183.535 208.238,183.260 208.427,181.719 208.641 C 180.774 208.772,178.927 209.093,177.615 209.355 C 175.986 209.680,175.084 209.712,174.771 209.457 C 173.938 208.781,174.119 141.800,174.954 141.314 C 175.307 141.108,175.423 140.935,175.211 140.929 C 174.999 140.922,174.628 141.116,174.385 141.358 M205.138 195.191 C 200.008 196.367,196.790 198.319,195.306 201.152 C 194.845 202.032,194.681 202.422,194.941 202.018 C 197.179 198.539,200.644 196.492,206.226 195.348 C 207.747 195.036,209.060 194.717,209.144 194.638 C 209.452 194.350,207.821 194.575,205.138 195.191 M0.000 264.954 L 0.000 266.789 4.220 266.789 L 8.440 266.789 8.440 268.685 C 8.440 269.728,8.539 270.482,8.660 270.361 C 8.781 270.241,8.761 268.562,8.616 266.631 L 8.353 263.119 4.177 263.119 L 0.000 263.119 0.000 264.954 M391.384 266.631 C 391.239 268.562,391.219 270.241,391.340 270.361 C 391.461 270.482,391.560 269.728,391.560 268.685 L 391.560 266.789 395.780 266.789 L 400.000 266.789 400.000 264.954 L 400.000 263.119 395.823 263.119 L 391.647 263.119 391.384 266.631 M8.912 273.211 C 8.915 274.220,8.986 274.589,9.071 274.032 C 9.155 273.474,9.153 272.648,9.066 272.197 C 8.979 271.745,8.910 272.202,8.912 273.211 M390.949 274.495 C 390.949 276.009,391.014 276.628,391.093 275.872 C 391.172 275.115,391.172 273.876,391.093 273.119 C 391.014 272.362,390.949 272.982,390.949 274.495 M9.365 280.550 C 9.842 295.853,13.635 303.051,22.387 305.260 C 23.900 305.642,25.737 306.311,26.469 306.748 C 27.517 307.374,31.795 308.583,33.081 308.617 C 33.211 308.621,33.822 309.408,34.439 310.367 C 35.767 312.433,38.144 314.789,40.183 316.060 C 40.991 316.563,42.147 317.648,42.752 318.471 C 46.645 323.764,49.636 323.993,117.431 324.185 L 167.523 324.327 123.119 324.042 C 49.664 323.570,45.789 323.136,42.389 314.999 C 42.090 314.282,40.704 312.566,39.310 311.186 L 36.776 308.676 33.370 308.089 C 29.806 307.474,27.124 306.489,25.876 305.338 C 25.470 304.963,24.265 304.400,23.198 304.087 C 18.151 302.607,14.995 299.726,13.396 295.141 C 12.850 293.575,12.103 291.716,11.735 291.009 C 10.861 289.329,9.990 284.846,9.561 279.817 L 9.216 275.780 9.365 280.550 M390.333 281.039 C 390.024 285.749,389.542 288.210,388.487 290.459 C 388.014 291.468,387.173 293.575,386.619 295.141 C 385.056 299.558,381.181 303.138,377.007 304.019 C 376.369 304.153,375.049 304.832,374.071 305.527 C 372.082 306.941,369.820 307.697,365.918 308.250 C 362.979 308.667,358.857 312.016,357.611 314.999 C 354.211 323.136,350.336 323.570,276.881 324.042 L 232.477 324.327 282.569 324.185 C 350.364 323.993,353.355 323.764,357.248 318.471 C 357.853 317.648,359.009 316.563,359.817 316.060 C 361.856 314.789,364.233 312.433,365.561 310.367 C 366.178 309.408,366.717 308.624,366.760 308.624 C 368.574 308.624,372.887 307.364,374.312 306.419 C 374.817 306.084,376.379 305.533,377.783 305.194 C 385.188 303.409,386.544 301.582,389.942 288.807 C 390.458 286.867,391.131 277.431,390.753 277.431 C 390.652 277.431,390.463 279.055,390.333 281.039 " stroke="none" fill="#181c24" fill-rule="evenodd"></path></g></svg>